<svg width="181" height="180" viewBox="0 0 181 180" fill="none" xmlns="http://www.w3.org/2000/svg">
<circle cx="90.3345" cy="89.998" r="90" fill="#E5C96C"/>
<circle cx="90.3347" cy="89.9964" r="77.1429" stroke="#18555C" stroke-dasharray="5 5"/>
<path d="M91.1997 32.2797L94.9504 22.7446L98.5563 23.0912L100.406 33.1649L97.9819 32.9318L96.6935 24.5072L96.517 24.4903L93.6241 32.5128L91.1997 32.2797ZM93.8078 30.1998L93.987 28.3354L98.4062 28.7603L98.227 30.6247L93.8078 30.1998Z" fill="#18555C"/>
<path d="M107.203 35.0866C106.769 34.9608 106.425 34.7834 106.17 34.5545C105.915 34.3255 105.737 34.0546 105.635 33.7415C105.535 33.4235 105.498 33.0786 105.526 32.7067L104.941 32.5372L105.923 31.1688C105.846 31.4727 105.831 31.744 105.88 31.9828C105.929 32.2215 106.038 32.427 106.207 32.5991C106.378 32.7663 106.599 32.8893 106.87 32.9679C107.285 33.0881 107.633 33.058 107.916 32.8776C108.2 32.6923 108.412 32.3554 108.554 31.8668L108.852 30.8378C108.992 30.3541 108.991 29.9606 108.849 29.6573C108.712 29.3554 108.436 29.1443 108.021 29.0242C107.789 28.957 107.564 28.9399 107.346 28.973C107.133 29.0075 106.938 29.0795 106.762 29.1889C106.592 29.2949 106.45 29.433 106.337 29.6034L106.128 28.4116L106.75 28.5917C106.919 28.2875 107.125 28.0288 107.368 27.8159C107.613 27.598 107.908 27.4562 108.254 27.3904C108.606 27.3211 109.016 27.3544 109.485 27.4903C110.334 27.7363 110.895 28.201 111.167 28.8846C111.446 29.5646 111.425 30.4599 111.103 31.5703L110.846 32.4587C110.521 33.579 110.056 34.3618 109.451 34.8071C108.846 35.2523 108.097 35.3455 107.203 35.0866ZM102.804 33.6272L105.637 23.8477L107.888 24.4998L107.257 26.6763L106.544 28.9975L106.494 29.1996L105.685 31.9905L105.522 32.4166L105.054 34.2793L102.804 33.6272Z" fill="#18555C"/>
<path d="M115.69 38.4242C114.594 37.8811 113.9 37.1986 113.607 36.3769C113.322 35.5529 113.425 34.646 113.915 33.6562L114.357 32.7654C114.854 31.7618 115.521 31.123 116.356 30.8489C117.194 30.5703 118.159 30.7014 119.25 31.2423C120.341 31.7832 121.027 32.4703 121.308 33.3035C121.596 34.1344 121.491 35.0516 120.993 36.0552L120.552 36.9461C120.061 37.9359 119.401 38.5666 118.573 38.8383C117.746 39.1054 116.785 38.9674 115.69 38.4242ZM116.515 36.76C116.906 36.954 117.261 36.9838 117.58 36.8494C117.906 36.7127 118.177 36.4257 118.394 35.9883L118.925 34.9179C119.153 34.4575 119.223 34.0563 119.134 33.7142C119.05 33.3744 118.813 33.1075 118.421 32.9135C118.03 32.7195 117.671 32.6909 117.346 32.8276C117.024 32.9665 116.75 33.2662 116.521 33.7266L115.991 34.797C115.774 35.2343 115.708 35.6229 115.791 35.9627C115.882 36.3002 116.123 36.566 116.515 36.76Z" fill="#18555C"/>
<path d="M128.045 36.6332L125.395 40.2146C125.23 40.4377 125.116 40.6533 125.051 40.8613C124.99 41.0652 124.994 41.263 125.063 41.4547C125.135 41.6423 125.289 41.8232 125.524 41.9974C125.723 42.1441 125.92 42.2358 126.117 42.2725C126.317 42.3123 126.511 42.309 126.699 42.2625C126.891 42.2191 127.065 42.1435 127.222 42.0356L126.858 43.1371L126.535 42.8987C126.268 43.1225 125.975 43.2893 125.657 43.3993C125.343 43.5124 125.007 43.5351 124.648 43.4676C124.293 43.4031 123.911 43.2196 123.502 42.9171C123.051 42.584 122.744 42.2222 122.579 41.8317C122.421 41.4402 122.4 41.0189 122.517 40.5681C122.637 40.1202 122.89 39.636 123.275 39.1156L126.149 35.2305L128.045 36.6332ZM131.961 39.5303L127.455 45.6213L125.571 44.2277L126.761 42.7493L126.815 42.5208L130.065 38.1276L131.961 39.5303Z" fill="#18555C"/>
<path d="M131.804 49.951C131.333 49.4703 131.029 49.0167 130.891 48.5902C130.761 48.1638 130.78 47.7461 130.947 47.3372C131.115 46.9282 131.411 46.5152 131.837 46.0979L134.859 43.1357L136.499 44.809L133.747 47.5068C133.483 47.7658 133.346 48.0151 133.336 48.2548C133.334 48.4946 133.493 48.7778 133.813 49.1044C133.989 49.2842 134.184 49.4424 134.397 49.5789C134.61 49.7155 134.818 49.8248 135.02 49.9067L133.488 51.1287C133.223 51.0207 132.947 50.8671 132.658 50.668C132.369 50.4762 132.085 50.2372 131.804 49.951ZM133.371 43.17L134.692 41.875L138.819 46.0857L137.353 47.232L133.371 43.17ZM135.304 42.7423L136.697 41.3663L138.491 42.8776L136.874 44.344L135.304 42.7423Z" fill="#18555C"/>
<path d="M145.881 55.2551L142.056 57.5402C141.818 57.6825 141.629 57.8372 141.49 58.0044C141.355 58.1689 141.282 58.353 141.272 58.5565C141.266 58.7574 141.339 58.9836 141.489 59.235C141.615 59.4468 141.762 59.6074 141.93 59.717C142.099 59.831 142.28 59.9027 142.471 59.9321C142.665 59.966 142.855 59.9633 143.041 59.9239L142.28 60.8002L142.075 60.4562C141.742 60.5596 141.407 60.6008 141.071 60.5799C140.738 60.5634 140.419 60.4549 140.114 60.2543C139.811 60.0581 139.529 59.7417 139.268 59.305C138.981 58.8242 138.836 58.3718 138.834 57.9479C138.84 57.5258 138.983 57.1291 139.264 56.7578C139.547 56.3908 139.967 56.0413 140.523 55.7092L144.671 53.2305L145.881 55.2551ZM148.379 59.4368L141.875 63.3229L140.673 61.3115L142.341 60.4051L142.479 60.215L147.17 57.4121L148.379 59.4368Z" fill="#18555C"/>
<path d="M144.092 68.7121C143.873 68.1521 143.726 67.6275 143.651 67.1383C143.571 66.651 143.533 66.2217 143.537 65.8506L145.309 64.9435C145.3 65.3719 145.32 65.8329 145.37 66.3266C145.426 66.8233 145.555 67.3325 145.759 67.8542C145.922 68.2707 146.08 68.5482 146.233 68.6869C146.393 68.8285 146.567 68.8628 146.753 68.79L146.782 68.7788C146.911 68.7283 146.999 68.6417 147.045 68.519C147.097 68.3992 147.114 68.2161 147.095 67.9698C147.078 67.7282 147.038 67.3935 146.976 66.9654C146.885 66.3225 146.865 65.7923 146.918 65.3748C146.974 64.9554 147.11 64.6182 147.325 64.3633C147.547 64.1114 147.847 63.9115 148.225 63.7639L148.282 63.7415C148.981 63.4687 149.6 63.5139 150.139 63.8771C150.683 64.2385 151.143 64.9026 151.521 65.8695C151.734 66.4152 151.875 66.9254 151.945 67.4002C152.014 67.8751 152.038 68.288 152.015 68.6389L150.372 69.4955C150.39 69.0911 150.367 68.6563 150.301 68.191C150.237 67.7306 150.114 67.2682 149.933 66.8039C149.823 66.5215 149.717 66.3064 149.615 66.1586C149.515 66.0156 149.416 65.9246 149.318 65.8856C149.222 65.8514 149.121 65.8549 149.016 65.896L148.994 65.9044C148.879 65.9492 148.796 66.0258 148.745 66.1342C148.693 66.2426 148.671 66.4113 148.678 66.6403C148.686 66.8742 148.72 67.2003 148.778 67.6188C148.881 68.2627 148.919 68.7993 148.894 69.2285C148.873 69.6558 148.764 70.0046 148.566 70.275C148.373 70.5434 148.061 70.7617 147.63 70.9299L147.565 70.9551C146.804 71.2523 146.137 71.2176 145.564 70.8512C144.995 70.483 144.505 69.7699 144.092 68.7121Z" fill="#18555C"/>
<path d="M152.11 79.4469L152.9 77.8408L154.284 78.8656L154.327 78.8436L154.329 77.2379L156.116 77.4079L155.688 79.0848L155.723 79.1108L157.32 78.6388L157.606 80.5522L155.939 80.5592L155.913 80.5942L156.813 82.081L155.154 82.7648L154.682 81.222L154.635 81.2212L153.61 82.6054L152.388 81.307L153.715 80.1739L153.708 80.1282L152.11 79.4469Z" fill="#18555C"/>
<path d="M148.67 90.7482L158.212 94.4823L157.872 98.0889L147.801 99.9565L148.03 97.5316L156.452 96.2285L156.469 96.052L148.441 93.1731L148.67 90.7482ZM150.755 93.3527L152.619 93.5287L152.202 97.9486L150.338 97.7727L150.755 93.3527Z" fill="#18555C"/>
<path d="M145.895 106.76C146.02 106.325 146.197 105.981 146.425 105.726C146.654 105.47 146.925 105.292 147.238 105.189C147.555 105.088 147.9 105.051 148.272 105.078L148.441 104.493L149.811 105.473C149.507 105.396 149.235 105.382 148.997 105.431C148.758 105.48 148.553 105.589 148.381 105.759C148.214 105.93 148.091 106.152 148.013 106.423C147.894 106.838 147.925 107.186 148.105 107.468C148.291 107.752 148.629 107.964 149.117 108.105L150.147 108.401C150.631 108.54 151.024 108.538 151.327 108.396C151.629 108.258 151.84 107.982 151.959 107.567C152.026 107.335 152.042 107.11 152.009 106.892C151.974 106.678 151.902 106.484 151.792 106.308C151.686 106.138 151.547 105.997 151.377 105.884L152.568 105.673L152.389 106.295C152.694 106.463 152.953 106.669 153.166 106.912C153.385 107.157 153.527 107.451 153.593 107.797C153.663 108.148 153.631 108.559 153.496 109.028C153.251 109.877 152.787 110.439 152.104 110.713C151.425 110.993 150.529 110.973 149.418 110.653L148.53 110.398C147.409 110.075 146.625 109.611 146.179 109.007C145.732 108.403 145.638 107.654 145.895 106.76ZM147.347 102.357L157.131 105.174L156.483 107.426L154.306 106.799L151.983 106.09L151.781 106.04L148.989 105.236L148.562 105.073L146.699 104.609L147.347 102.357Z" fill="#18555C"/>
<path d="M142.567 115.257C143.108 114.161 143.79 113.465 144.611 113.172C145.434 112.885 146.341 112.986 147.332 113.475L148.224 113.915C149.228 114.41 149.868 115.076 150.144 115.911C150.424 116.748 150.294 117.713 149.755 118.805C149.216 119.897 148.53 120.584 147.698 120.867C146.867 121.156 145.95 121.053 144.945 120.557L144.054 120.117C143.063 119.628 142.431 118.969 142.158 118.141C141.889 117.315 142.026 116.354 142.567 115.257ZM144.233 116.079C144.039 116.471 144.01 116.826 144.145 117.145C144.282 117.471 144.57 117.741 145.008 117.957L146.079 118.486C146.54 118.714 146.941 118.783 147.283 118.694C147.623 118.609 147.889 118.371 148.083 117.979C148.276 117.588 148.304 117.229 148.167 116.904C148.027 116.583 147.727 116.308 147.266 116.081L146.195 115.552C145.757 115.336 145.368 115.27 145.029 115.355C144.691 115.446 144.426 115.688 144.233 116.079Z" fill="#18555C"/>
<path d="M144.381 127.604L140.795 124.96C140.572 124.796 140.356 124.681 140.148 124.617C139.944 124.556 139.746 124.56 139.555 124.63C139.367 124.702 139.187 124.856 139.013 125.092C138.866 125.291 138.775 125.488 138.739 125.685C138.699 125.886 138.703 126.08 138.75 126.268C138.793 126.459 138.869 126.633 138.978 126.79L137.875 126.427L138.113 126.105C137.889 125.837 137.722 125.545 137.611 125.227C137.497 124.914 137.474 124.577 137.541 124.218C137.605 123.863 137.788 123.481 138.09 123.071C138.422 122.62 138.783 122.312 139.173 122.147C139.565 121.988 139.986 121.967 140.437 122.082C140.885 122.202 141.37 122.454 141.891 122.838L145.781 125.705L144.381 127.604ZM141.491 131.525L135.392 127.029L136.783 125.143L138.263 126.33L138.492 126.384L142.891 129.626L141.491 131.525Z" fill="#18555C"/>
<path d="M131.066 131.392C131.546 130.92 131.999 130.615 132.425 130.476C132.852 130.345 133.269 130.363 133.679 130.53C134.088 130.697 134.501 130.993 134.919 131.418L137.887 134.435L136.216 136.078L133.514 133.33C133.254 133.067 133.005 132.93 132.765 132.921C132.525 132.919 132.242 133.078 131.916 133.399C131.737 133.576 131.579 133.77 131.443 133.984C131.307 134.197 131.198 134.405 131.116 134.608L129.891 133.077C129.999 132.813 130.152 132.536 130.351 132.247C130.542 131.958 130.78 131.673 131.066 131.392ZM137.85 132.946L139.147 134.265L134.944 138.4L133.795 136.935L137.85 132.946ZM138.281 134.879L139.659 136.27L138.151 138.067L136.682 136.452L138.281 134.879Z" fill="#18555C"/>
<path d="M125.793 145.477L123.502 141.657C123.359 141.419 123.204 141.23 123.036 141.091C122.872 140.956 122.687 140.884 122.484 140.874C122.283 140.869 122.057 140.941 121.806 141.092C121.594 141.219 121.434 141.366 121.325 141.533C121.211 141.703 121.14 141.884 121.11 142.075C121.077 142.269 121.08 142.459 121.12 142.645L120.242 141.886L120.586 141.68C120.482 141.347 120.44 141.013 120.46 140.677C120.476 140.344 120.584 140.024 120.784 139.718C120.98 139.415 121.296 139.133 121.732 138.871C122.212 138.583 122.664 138.438 123.088 138.435C123.51 138.44 123.907 138.582 124.279 138.862C124.647 139.145 124.997 139.564 125.33 140.119L127.816 144.264L125.793 145.477ZM121.616 147.983L117.719 141.485L119.728 140.28L120.637 141.946L120.828 142.083L123.639 146.769L121.616 147.983Z" fill="#18555C"/>
<path d="M112.331 143.709C112.891 143.489 113.415 143.341 113.904 143.265C114.391 143.184 114.82 143.146 115.191 143.149L116.102 144.92C115.673 144.911 115.212 144.932 114.719 144.982C114.222 145.039 113.713 145.17 113.192 145.375C112.776 145.538 112.498 145.696 112.36 145.85C112.219 146.01 112.184 146.184 112.258 146.37L112.269 146.399C112.32 146.528 112.406 146.616 112.529 146.661C112.649 146.714 112.832 146.73 113.078 146.711C113.32 146.693 113.655 146.653 114.083 146.59C114.725 146.498 115.256 146.477 115.673 146.529C116.093 146.585 116.43 146.72 116.685 146.935C116.938 147.156 117.138 147.455 117.286 147.833L117.309 147.891C117.583 148.589 117.539 149.208 117.176 149.748C116.816 150.292 116.153 150.754 115.186 151.133C114.641 151.347 114.131 151.489 113.656 151.559C113.182 151.63 112.769 151.654 112.418 151.632L111.558 149.99C111.963 150.008 112.398 149.983 112.863 149.917C113.323 149.852 113.785 149.729 114.249 149.547C114.532 149.436 114.746 149.329 114.894 149.227C115.037 149.127 115.128 149.028 115.167 148.93C115.201 148.834 115.197 148.733 115.156 148.628L115.147 148.606C115.102 148.492 115.025 148.409 114.917 148.357C114.808 148.306 114.64 148.284 114.411 148.291C114.177 148.3 113.851 148.334 113.432 148.393C112.789 148.497 112.252 148.536 111.823 148.512C111.396 148.492 111.047 148.383 110.776 148.186C110.507 147.993 110.288 147.682 110.119 147.251L110.094 147.186C109.795 146.426 109.829 145.759 110.194 145.185C110.562 144.616 111.274 144.124 112.331 143.709Z" fill="#18555C"/>
<path d="M101.607 151.75L103.215 152.536L102.193 153.922L102.215 153.965L103.82 153.965L103.653 155.752L101.976 155.327L101.95 155.362L102.425 156.958L100.512 157.247L100.502 155.58L100.467 155.554L98.9816 156.457L98.2949 154.799L99.8368 154.324L99.8376 154.277L98.4517 153.255L99.7479 152.03L100.883 153.356L100.929 153.349L101.607 151.75Z" fill="#18555C"/>
<path d="M90.2986 148.326L86.5812 157.875L82.974 157.54L81.0889 147.473L83.5141 147.698L84.8319 156.118L85.0085 156.134L87.8734 148.102L90.2986 148.326ZM87.6978 150.415L87.5251 152.28L83.1044 151.871L83.2771 150.006L87.6978 150.415Z" fill="#18555C"/>
<path d="M74.2793 145.579C74.714 145.703 75.0592 145.88 75.3146 146.108C75.5701 146.336 75.7493 146.606 75.8523 146.919C75.9539 147.236 75.9915 147.581 75.9654 147.953L76.5508 148.121L75.5733 149.492C75.6496 149.188 75.6631 148.917 75.6137 148.678C75.5644 148.44 75.4546 148.235 75.2846 148.063C75.1131 147.896 74.8915 147.774 74.6198 147.697C74.2048 147.578 73.8565 147.609 73.5748 147.791C73.2917 147.977 73.0803 148.315 72.9404 148.804L72.6459 149.834C72.5075 150.318 72.5098 150.711 72.6531 151.014C72.7913 151.316 73.068 151.526 73.483 151.644C73.7152 151.711 73.9403 151.727 74.1584 151.693C74.3716 151.658 74.5661 151.585 74.7418 151.475C74.9113 151.369 75.0524 151.23 75.1654 151.059L75.378 152.25L74.7555 152.072C74.5881 152.377 74.383 152.637 74.1402 152.85C73.896 153.069 73.6012 153.212 73.2561 153.279C72.9046 153.35 72.4942 153.318 72.0248 153.183C71.1751 152.941 70.6126 152.478 70.3375 151.795C70.056 151.116 70.0742 150.221 70.392 149.109L70.6463 148.22C70.9669 147.098 71.4291 146.314 72.0326 145.867C72.6362 145.419 73.3851 145.323 74.2793 145.579ZM78.6843 147.023L75.8853 156.812L73.6324 156.168L74.2554 153.99L74.9599 151.666L75.0097 151.464L75.8085 148.67L75.9706 148.243L76.4315 146.379L78.6843 147.023Z" fill="#18555C"/>
<path d="M65.7823 142.268C66.8799 142.808 67.5763 143.488 67.8716 144.308C68.1599 145.131 68.0605 146.039 67.5733 147.03L67.1349 147.922C66.6409 148.928 65.9766 149.569 65.142 149.846C64.3052 150.128 63.3403 150 62.2473 149.463C61.1543 148.926 60.4659 148.241 60.1821 147.409C59.8914 146.579 59.993 145.661 60.487 144.656L60.9255 143.764C61.4127 142.772 62.0701 142.139 62.8978 141.864C63.7232 141.594 64.6847 141.729 65.7823 142.268ZM64.9631 143.936C64.5711 143.743 64.2159 143.714 63.8974 143.85C63.572 143.988 63.3017 144.276 63.0865 144.714L62.5596 145.786C62.333 146.247 62.2646 146.649 62.3542 146.99C62.4393 147.33 62.6779 147.596 63.0699 147.789C63.4619 147.981 63.8206 148.009 64.1459 147.871C64.4667 147.731 64.7404 147.43 64.967 146.969L65.4938 145.897C65.7091 145.459 65.7742 145.07 65.6891 144.73C65.5971 144.393 65.3551 144.128 64.9631 143.936Z" fill="#18555C"/>
<path d="M53.4382 144.102L56.0752 140.511C56.2395 140.288 56.3534 140.072 56.4171 139.863C56.4777 139.659 56.4732 139.462 56.4034 139.27C56.3306 139.083 56.1762 138.902 55.9401 138.729C55.7413 138.583 55.5436 138.492 55.347 138.456C55.1462 138.417 54.952 138.421 54.7644 138.468C54.5726 138.512 54.3987 138.588 54.2425 138.697L54.6029 137.594L54.926 137.831C55.193 137.607 55.4852 137.439 55.8027 137.328C56.1161 137.213 56.4524 137.189 56.8117 137.256C57.167 137.319 57.5496 137.501 57.9596 137.802C58.411 138.134 58.7199 138.494 58.8862 138.884C59.0453 139.275 59.0675 139.697 58.9528 140.148C58.834 140.596 58.583 141.081 58.1997 141.603L55.3391 145.498L53.4382 144.102ZM49.512 141.219L53.9968 135.112L55.8853 136.499L54.7009 137.981L54.6477 138.21L51.413 142.615L49.512 141.219Z" fill="#18555C"/>
<path d="M49.6304 130.794C50.1033 131.273 50.4092 131.725 50.5481 132.151C50.6798 132.577 50.6625 132.995 50.4964 133.405C50.3302 133.814 50.035 134.228 49.6108 134.647L46.5994 137.62L44.9533 135.952L47.696 133.245C47.9593 132.985 48.0953 132.735 48.1042 132.495C48.1057 132.255 47.9459 131.973 47.6246 131.647C47.4477 131.468 47.2525 131.311 47.039 131.175C46.8256 131.039 46.6173 130.931 46.4144 130.849L47.943 129.622C48.2075 129.729 48.4845 129.882 48.7739 130.08C49.0633 130.271 49.3488 130.509 49.6304 130.794ZM48.0875 137.58L46.771 138.88L42.6288 134.683L44.0915 133.532L48.0875 137.58ZM46.1553 138.015L44.7675 139.395L42.9677 137.89L44.5797 136.418L46.1553 138.015Z" fill="#18555C"/>
<path d="M35.5293 125.542L39.3457 123.244C39.5834 123.101 39.7717 122.945 39.9107 122.777C40.0452 122.612 40.1172 122.428 40.1265 122.225C40.1315 122.024 40.0584 121.798 39.9073 121.547C39.7801 121.336 39.6326 121.175 39.465 121.066C39.2948 120.953 39.114 120.882 38.9227 120.853C38.7288 120.82 38.5389 120.823 38.353 120.863L39.1103 119.984L39.3171 120.328C39.65 120.223 39.9844 120.181 40.3202 120.201C40.6533 120.216 40.9729 120.323 41.279 120.523C41.5825 120.718 41.8655 121.033 42.1279 121.469C42.4169 121.949 42.563 122.401 42.5663 122.825C42.5626 123.247 42.421 123.644 42.1413 124.016C41.8591 124.384 41.4406 124.735 40.886 125.069L36.7461 127.562L35.5293 125.542ZM33.0162 121.369L39.5067 117.46L40.7155 119.468L39.0515 120.38L38.9143 120.57L34.233 123.39L33.0162 121.369Z" fill="#18555C"/>
<path d="M37.2758 112.08C37.4964 112.64 37.6451 113.164 37.722 113.653C37.8036 114.14 37.843 114.569 37.8403 114.94L36.0712 115.853C36.0789 115.425 36.0573 114.964 36.0062 114.47C35.9485 113.974 35.8169 113.465 35.6113 112.944C35.4473 112.528 35.2883 112.251 35.1344 112.113C34.9738 111.972 34.8003 111.938 34.6139 112.012L34.5852 112.023C34.4562 112.074 34.3689 112.161 34.3235 112.284C34.2714 112.404 34.2552 112.587 34.275 112.833C34.293 113.075 34.3338 113.409 34.3976 113.837C34.4909 114.48 34.5122 115.01 34.4616 115.428C34.4061 115.847 34.2714 116.185 34.0574 116.44C33.8367 116.693 33.5376 116.894 33.1599 117.043L33.1026 117.066C32.4047 117.341 31.7856 117.298 31.2454 116.937C30.7004 116.577 30.2374 115.915 29.8565 114.949C29.6416 114.404 29.4985 113.894 29.4273 113.42C29.3561 112.945 29.3314 112.532 29.3531 112.181L30.9932 111.319C30.976 111.723 31.0011 112.158 31.0685 112.623C31.1341 113.083 31.2583 113.545 31.4412 114.009C31.5524 114.291 31.6592 114.506 31.7616 114.653C31.862 114.796 31.9613 114.887 32.0594 114.925C32.1556 114.959 32.2563 114.955 32.3615 114.914L32.383 114.905C32.4977 114.86 32.5806 114.783 32.6317 114.675C32.6828 114.566 32.7046 114.397 32.6971 114.168C32.6877 113.934 32.653 113.608 32.593 113.19C32.4883 112.547 32.4479 112.01 32.4719 111.581C32.4911 111.153 32.5992 110.804 32.7961 110.533C32.9882 110.264 33.2994 110.045 33.7296 109.875L33.7941 109.85C34.5541 109.55 35.2214 109.582 35.796 109.946C36.3658 110.313 36.8591 111.024 37.2758 112.08Z" fill="#18555C"/>
<path d="M29.222 101.372L28.4385 102.981L27.0508 101.961L27.0074 101.983L27.0109 103.589L25.2238 103.425L25.6458 101.746L25.6107 101.721L24.015 102.198L23.723 100.286L25.3896 100.273L25.4155 100.238L24.5106 98.7542L26.1674 98.0646L26.6444 99.6057L26.6913 99.6063L27.7113 98.2187L28.9381 99.5128L27.6148 100.65L27.6218 100.696L29.222 101.372Z" fill="#18555C"/>
<path d="M32.619 90.0594L23.0644 86.3586L23.3922 82.7508L33.456 80.8482L33.2356 83.2738L24.8179 84.6063L24.8019 84.7828L32.8394 87.6338L32.619 90.0594ZM30.5255 87.4622L28.6602 87.2927L29.0619 82.8713L30.9272 83.0408L30.5255 87.4622Z" fill="#18555C"/>
<path d="M35.3404 74.0343C35.2168 74.4693 35.0413 74.8147 34.8137 75.0706C34.5861 75.3265 34.3161 75.5062 34.0036 75.6097C33.6861 75.7118 33.3414 75.7501 32.9694 75.7246L32.803 76.3103L31.4294 75.3353C31.7337 75.411 32.0051 75.424 32.2436 75.3742C32.4821 75.3245 32.687 75.2144 32.8582 75.044C33.0245 74.8722 33.1463 74.6504 33.2235 74.3786C33.3414 73.9634 33.3094 73.6151 33.1276 73.3338C32.9408 73.051 32.6028 72.8402 32.1134 72.7012L31.0828 72.4085C30.5984 72.2709 30.2049 72.274 29.9024 72.4177C29.6012 72.5565 29.3916 72.8335 29.2737 73.2488C29.2077 73.4811 29.1919 73.7062 29.2261 73.9243C29.2617 74.1374 29.3347 74.3317 29.4451 74.5073C29.5519 74.6765 29.6908 74.8175 29.8618 74.9301L28.6711 75.1448L28.848 74.522C28.5428 74.3552 28.2831 74.1506 28.0689 73.9081C27.8497 73.6642 27.7063 73.3698 27.6387 73.0247C27.5676 72.6734 27.5987 72.2629 27.732 71.7933C27.9735 70.9431 28.4353 70.3799 29.1174 70.1035C29.7959 69.8208 30.6913 69.8374 31.8035 70.1533L32.6932 70.406C33.8152 70.7247 34.6005 71.1854 35.0489 71.7882C35.4973 72.3909 35.5945 73.1397 35.3404 74.0343ZM33.9043 78.4419L24.1099 75.6602L24.75 73.4062L26.9299 74.0253L29.2549 74.7257L29.4572 74.7751L32.2524 75.569L32.6793 75.7304L34.5444 76.188L33.9043 78.4419Z" fill="#18555C"/>
<path d="M38.6348 65.5319C38.0975 66.6304 37.4187 67.3281 36.5986 67.6248C35.7761 67.9146 34.8687 67.8168 33.8763 67.3313L32.9831 66.8944C31.9769 66.4022 31.3346 65.739 31.0561 64.905C30.7731 64.0686 30.8991 63.1035 31.4343 62.0096C31.9694 60.9156 32.6528 60.226 33.4845 59.9407C34.3139 59.6485 35.2317 59.7486 36.2379 60.2408L37.131 60.6777C38.1234 61.1631 38.7577 61.8195 39.0337 62.6467C39.3052 63.4716 39.1722 64.4333 38.6348 65.5319ZM36.9662 64.7157C37.1582 64.3233 37.1861 63.968 37.05 63.6498C36.9116 63.3247 36.6232 63.0549 36.1847 62.8404L35.1115 62.3154C34.6499 62.0896 34.2483 62.0219 33.9067 62.1122C33.5673 62.1978 33.3017 62.4369 33.1098 62.8292C32.9178 63.2215 32.8911 63.5803 33.0295 63.9054C33.1702 64.2259 33.4713 64.499 33.9329 64.7248L35.006 65.2498C35.4445 65.4643 35.8335 65.5287 36.1728 65.443C36.5098 65.3505 36.7743 65.108 36.9662 64.7157Z" fill="#18555C"/>
<path d="M36.778 53.1865L40.3733 55.8172C40.5972 55.9811 40.8134 56.0947 41.0217 56.158C41.2259 56.2183 41.4237 56.2134 41.6151 56.1433C41.8023 56.0702 41.9824 55.9154 42.1553 55.6791C42.301 55.48 42.3917 55.2821 42.4274 55.0854C42.4661 54.8845 42.4618 54.6903 42.4143 54.5028C42.3699 54.3111 42.2934 54.1373 42.1847 53.9814L43.2881 54.3399L43.0514 54.6633C43.2765 54.93 43.4449 55.2219 43.5566 55.5392C43.6713 55.8523 43.6958 56.1886 43.6301 56.5481C43.5675 56.9034 43.386 57.2863 43.0856 57.6969C42.7549 58.1489 42.3947 58.4584 42.0051 58.6253C41.6144 58.7851 41.1933 58.8081 40.7418 58.6942C40.2933 58.5762 39.8078 58.326 39.2853 57.9436L35.3853 55.0898L36.778 53.1865ZM39.6546 49.2553L45.7691 53.7294L44.3854 55.6204L42.9007 54.4385L42.672 54.3857L38.2618 51.1587L39.6546 49.2553Z" fill="#18555C"/>
<path d="M50.0801 49.3566C49.6018 49.8303 49.1498 50.137 48.7241 50.2766C48.2983 50.4091 47.8805 50.3925 47.4708 50.2271C47.061 50.0616 46.6463 49.7672 46.2269 49.3437L43.249 46.3374L44.9137 44.6884L47.6258 47.4264C47.8861 47.6893 48.1362 47.8249 48.376 47.8333C48.6158 47.8344 48.8981 47.6741 49.223 47.3523C49.4019 47.1751 49.5591 46.9796 49.6945 46.7659C49.83 46.5522 49.9382 46.3438 50.0191 46.1407L51.249 47.6671C51.1424 47.9318 50.9903 48.2091 50.7927 48.4988C50.6024 48.7886 50.3648 49.0745 50.0801 49.3566ZM43.291 47.8255L41.9892 46.5113L46.1783 42.3618L47.3322 43.8225L43.291 47.8255ZM42.8532 45.894L41.47 44.5086L42.972 42.7063L44.4468 44.3156L42.8532 45.894Z" fill="#18555C"/>
<path d="M55.3083 35.2524L57.6134 39.0647C57.7569 39.3022 57.9126 39.4902 58.0806 39.6289C58.2458 39.7632 58.4302 39.8348 58.6338 39.8438C58.8348 39.8484 59.0605 39.7749 59.3112 39.6234C59.5222 39.4958 59.6821 39.3481 59.7908 39.1803C59.9039 39.0098 59.9747 38.8289 60.0031 38.6376C60.036 38.4436 60.0322 38.2537 59.992 38.0679L60.8722 38.8237L60.5292 39.031C60.6344 39.3638 60.6774 39.6981 60.6582 40.0339C60.6435 40.367 60.5366 40.6869 60.3376 40.9933C60.143 41.2971 59.828 41.5806 59.3927 41.8438C58.9134 42.1336 58.4619 42.2806 58.038 42.2846C57.6159 42.2817 57.2184 42.1407 56.8456 41.8617C56.4771 41.5801 56.1254 41.1622 55.7905 40.6082L53.29 36.4727L55.3083 35.2524ZM59.4769 32.732L63.397 39.2156L61.3919 40.428L60.4768 38.7655L60.286 38.6287L57.4586 33.9523L59.4769 32.732Z" fill="#18555C"/>
<path d="M68.7766 36.9722C68.2178 37.1937 67.6939 37.3434 67.2052 37.4211C66.7183 37.5036 66.2893 37.5438 65.9181 37.5417L65.0017 35.7741C65.4301 35.7812 65.8911 35.7587 66.3845 35.7068C66.8809 35.6482 67.3894 35.5157 67.9101 35.3092C68.3256 35.1445 68.6024 34.985 68.7402 34.8309C68.881 34.67 68.9144 34.4965 68.8406 34.3102L68.8292 34.2815C68.7781 34.1526 68.691 34.0655 68.5681 34.0202C68.448 33.9684 68.2649 33.9525 68.0186 33.9728C67.7772 33.9911 67.4426 34.0326 67.0149 34.0971C66.3725 34.1915 65.8424 34.2137 65.4246 34.1638C65.0049 34.1091 64.667 33.975 64.411 33.7614C64.1579 33.5412 63.9565 33.2424 63.8069 32.865L63.7842 32.8077C63.5077 32.1103 63.5496 31.4911 63.9101 30.9503C64.2686 30.4046 64.9303 29.9405 65.8952 29.558C66.4397 29.3421 66.9492 29.1981 67.4237 29.1261C67.8981 29.0541 68.3109 29.0286 68.662 29.0497L69.5272 30.6883C69.1227 30.6718 68.688 30.6977 68.2231 30.7659C67.7629 30.8322 67.3012 30.9573 66.8379 31.141C66.556 31.2527 66.3415 31.3599 66.1942 31.4625C66.0518 31.5632 65.9613 31.6626 65.9228 31.7608C65.8891 31.8571 65.8931 31.9577 65.9348 32.0628L65.9433 32.0843C65.9888 32.199 66.0658 32.2817 66.1744 32.3326C66.283 32.3835 66.4519 32.405 66.6809 32.3971C66.9147 32.3874 67.2407 32.3521 67.6588 32.2914C68.3022 32.1855 68.8386 32.1442 69.2679 32.1674C69.6953 32.1859 70.0447 32.2934 70.3161 32.4898C70.5855 32.6815 70.8054 32.9923 70.9759 33.4222L71.0015 33.4866C71.3026 34.2461 71.2714 34.9135 70.908 35.4887C70.5428 36.0592 69.8323 36.5536 68.7766 36.9722Z" fill="#18555C"/>
<path d="M79.475 28.8974L77.8648 28.1166L78.8825 26.7272L78.8602 26.6838L77.2545 26.6901L77.4152 24.9027L79.0943 25.3218L79.1201 25.2866L78.6398 23.6918L80.5517 23.3965L80.5674 25.0631L80.6025 25.0888L82.0846 24.1814L82.7771 25.837L81.2368 26.3167L81.2362 26.3636L82.6256 27.3812L81.3337 28.6103L80.1937 27.2889L80.148 27.296L79.475 28.8974Z" fill="#18555C"/>
<circle cx="90.3346" cy="89.9982" r="45.0002" fill="#18555C"/>
<path d="M96.8077 75.5068C97.2947 75.88 97.7982 76.2156 98.3391 76.5066C98.9264 76.8227 99.5446 77.0592 100.188 77.2327C100.32 77.2683 100.453 77.2939 100.587 77.3152C100.625 77.2741 100.664 77.2333 100.701 77.1904C101.169 76.6422 101.481 75.9762 101.707 75.2916C102.004 74.3877 102.157 73.4368 102.16 72.4854C102.162 72.0602 102.137 71.5946 101.943 71.2079C101.784 70.891 101.419 70.651 101.057 70.7271C100.556 70.8326 100.43 71.4216 100.231 71.8132C99.7507 72.7597 98.948 73.5368 98.0064 74.0211C97.6038 74.2282 97.1745 74.3833 96.787 74.6174C96.5832 74.7405 96.3896 74.8912 96.231 75.0685C96.4199 75.2359 96.6433 75.3805 96.8077 75.5068Z" fill="#E5C96C"/>
<path d="M80.711 75.8978C80.8504 75.6531 81.0531 75.4674 81.2869 75.3496C83.2814 73.6059 86.1783 73.3356 88.4743 74.7218L90.218 75.7747V77.2079C89.9716 77.2079 89.7255 77.1417 89.5065 77.0096C89.5065 77.0096 86.9787 75.6441 85.5587 75.6441C81.8707 75.6441 81.8147 78.1092 81.2761 77.8027L81.2266 77.7744C80.5661 77.3989 80.3352 76.5585 80.711 75.8978Z" fill="#E5C96C"/>
<path d="M99.1506 75.3497C99.3844 75.4675 99.5874 75.6532 99.7265 75.8978C100.102 76.5586 99.8714 77.3989 99.2106 77.7748L99.1611 77.8031C98.6222 78.1095 98.5665 75.6445 94.8785 75.6445C93.4585 75.6445 90.9307 77.01 90.9307 77.01C90.712 77.1421 90.4656 77.2082 90.2192 77.2082V75.7751L91.9629 74.7222C94.2595 73.3354 97.1564 73.606 99.1506 75.3497Z" fill="#E5C96C"/>
<path d="M90.7618 89.6694C90.7618 82.2744 96.7779 76.2581 104.173 76.2581H112.119C112.738 76.2581 113.239 76.7599 113.239 77.379C113.239 82.0111 109.471 85.7796 104.838 85.7796H100.95C100.53 87.8659 100.397 89.9598 100.358 92.0846C100.376 96.3196 97.9955 97.3192 96.1034 100.436L96.8747 102.643C97.3671 104.052 97.154 105.558 96.29 106.775C95.426 107.992 94.0745 108.69 92.5822 108.69C92.5816 108.69 87.8488 108.69 87.8488 108.69C86.3562 108.69 85.0047 107.992 84.1407 106.775C83.2768 105.557 83.0636 104.051 83.5561 102.642L84.3262 100.439C83.6057 99.262 82.8015 98.2981 81.8728 97.2157C80.9216 96.0802 80.2693 94.6509 80.1323 93.1746C80.0544 92.4608 80.0804 91.7376 80.0477 91.0235C79.9734 89.255 79.8311 87.5175 79.4803 85.7793H75.5922C70.9604 85.7793 67.1919 82.0108 67.1919 77.3787C67.1919 76.7596 67.6937 76.2578 68.3125 76.2578H76.2579C83.6529 76.2578 89.6689 82.2741 89.6689 89.6691C89.6689 91.1795 89.4164 92.6681 88.9181 94.0937L85.6721 103.381C85.4051 104.146 85.3794 105.077 85.8894 105.742C86.4574 106.484 87.9666 107.499 88.8816 106.754C89.0718 106.599 89.1916 106.342 89.1333 106.104C89.0866 105.913 88.9362 105.763 88.7688 105.66C88.4288 105.45 88.0177 105.401 87.6281 105.312C87.0502 105.181 86.5148 104.872 86.4081 104.243C86.3235 103.743 86.6157 103.189 87.096 103.027C87.5966 102.859 88.1407 103.116 88.5612 103.435C89.3392 104.027 89.9999 104.887 90.2154 105.844C90.4306 104.887 91.0916 104.026 91.8696 103.435C92.29 103.116 92.8341 102.858 93.3348 103.027C93.815 103.189 94.1072 103.743 94.0226 104.243C93.9159 104.872 93.3806 105.181 92.8026 105.312C92.4131 105.401 92.0022 105.45 91.6619 105.66C91.4946 105.763 91.3444 105.913 91.2975 106.104C91.2391 106.342 91.3593 106.599 91.5491 106.754C92.4641 107.499 93.9734 106.484 94.5414 105.742C95.0514 105.076 95.0257 104.146 94.7586 103.381L91.5126 94.0937C91.0146 92.6684 90.7618 91.1795 90.7618 89.6694Z" fill="#E5C96C"/>
<path d="M84.2629 97.8428C83.0904 96.9861 81.9637 96.2939 81.2811 95.0261C80.2591 93.1736 80.6851 90.9366 80.7816 88.9019C80.7878 88.8339 80.7942 88.766 80.8006 88.698C80.9563 87.0625 81.7471 85.5515 82.993 84.4805C83.5692 83.9854 83.9162 83.5375 83.2884 83.5375H75.5917C72.5784 83.5375 69.312 80.6499 68.7837 77.7871H76.039C82.0139 77.7871 87.5847 82.1277 87.9002 88.0944C87.9775 89.5565 87.2823 91.979 86.8018 93.3541L85.0377 98.4018C84.7761 98.219 84.5181 98.0326 84.2629 97.8428ZM105.128 83.5378H94.8432C96.9006 80.1758 100.435 77.9513 104.443 77.9513H111.36C110.817 81.1258 108.229 83.5378 105.128 83.5378Z" fill="#E5C96C"/>
<path d="M83.6237 75.5068C83.1368 75.88 82.6332 76.2156 82.0923 76.5066C81.5051 76.8227 80.8869 77.0592 80.2431 77.2327C80.1113 77.2683 79.978 77.2939 79.8445 77.3152C79.806 77.2741 79.7672 77.2333 79.7307 77.1904C79.2625 76.6422 78.9502 75.9762 78.7248 75.2916C78.4273 74.3877 78.2743 73.4368 78.2711 72.4854C78.2696 72.0602 78.2941 71.5946 78.4886 71.2079C78.6478 70.891 79.012 70.651 79.3741 70.7271C79.876 70.8326 80.0016 71.4216 80.2002 71.8132C80.6807 72.7597 81.4835 73.5368 82.425 74.0211C82.8277 74.2282 83.2569 74.3833 83.6444 74.6174C83.8483 74.7405 84.0419 74.8912 84.2005 75.0685C84.0115 75.2359 83.7882 75.3805 83.6237 75.5068Z" fill="#E5C96C"/>
<path d="M96.2534 90.5117C97.015 90.5117 97.6324 89.8944 97.6324 89.1328C97.6324 88.3713 97.015 87.7539 96.2534 87.7539C95.4919 87.7539 94.8745 88.3713 94.8745 89.1328C94.8745 89.8944 95.4919 90.5117 96.2534 90.5117Z" fill="#18555C"/>
<path d="M84.1802 90.5117C84.9417 90.5117 85.5591 89.8944 85.5591 89.1328C85.5591 88.3713 84.9417 87.7539 84.1802 87.7539C83.4186 87.7539 82.8013 88.3713 82.8013 89.1328C82.8013 89.8944 83.4186 90.5117 84.1802 90.5117Z" fill="#18555C"/>
</svg>
