<svg width="202" height="40" viewBox="0 0 202 40" fill="none" xmlns="http://www.w3.org/2000/svg">
<path fill-rule="evenodd" clip-rule="evenodd" d="M25.5741 11.6853C23.9284 10.5865 21.9936 10 20.0144 10V0C23.9729 0 27.8424 1.17298 31.1338 3.37061C34.4252 5.56823 36.9904 8.69181 38.5053 12.3463C40.0201 16.0008 40.4165 20.0222 39.6442 23.9018C38.872 27.7814 36.9658 31.3451 34.1667 34.1421C31.3677 36.9392 27.8014 38.844 23.919 39.6157C20.0366 40.3874 16.0123 39.9913 12.3552 38.4776C8.69806 36.9638 5.57224 34.4004 3.37304 31.1114C1.17382 27.8224 0 23.9556 0 20H10.0072C10.0072 21.9778 10.5941 23.9112 11.6937 25.5557C12.7933 27.2002 14.3562 28.4819 16.1848 29.2388C18.0134 29.9957 20.0255 30.1937 21.9667 29.8078C23.9079 29.422 25.691 28.4696 27.0906 27.0711C28.4901 25.6725 29.4432 23.8907 29.8293 21.9509C30.2154 20.0111 30.0173 18.0004 29.2599 16.1732C28.5024 14.3459 27.2198 12.7841 25.5741 11.6853Z" fill="#E5C96C"/>
<path fill-rule="evenodd" clip-rule="evenodd" d="M10.0072 5.28493e-06C10.0072 1.31322 9.74836 2.61358 9.24545 3.82684C8.74254 5.04009 8.00542 6.14248 7.07616 7.07107C6.14691 7.99966 5.04372 8.73625 3.82959 9.2388C2.61546 9.74134 1.31416 10 4.37425e-07 10L0 20C2.62833 20 5.23092 19.4827 7.65919 18.4776C10.0875 17.4725 12.2938 15.9993 14.1523 14.1421C16.0108 12.285 17.4851 10.0802 18.4909 7.65367C19.4967 5.22715 20.0144 2.62643 20.0144 0L10.0072 5.28493e-06Z" fill="#E5C96C"/>
<path d="M125.709 14.4531H120.854V29.8654H125.709V14.4531Z" fill="#E5C96C"/>
<path d="M121.395 11.5666C121.902 12.074 122.536 12.3277 123.298 12.3277C124.06 12.3277 124.684 12.074 125.17 11.5666C125.658 11.0381 125.901 10.4038 125.901 9.66385C125.901 8.90277 125.658 8.26849 125.17 7.76111C124.684 7.25369 124.06 7 123.298 7C122.536 7 121.902 7.25369 121.395 7.76111C120.907 8.26849 120.664 8.90277 120.664 9.66385C120.664 10.4038 120.907 11.0381 121.395 11.5666Z" fill="#E5C96C"/>
<path d="M51.1929 29.8657V7.47656H56.1754V25.4894H66.1086V29.8657H51.1929Z" fill="#E5C96C"/>
<path fill-rule="evenodd" clip-rule="evenodd" d="M75.0812 30.2135C73.4945 30.2135 72.0558 29.8647 70.7652 29.167C69.4958 28.4482 68.4909 27.4757 67.7503 26.2494C67.0099 25.0232 66.6396 23.649 66.6396 22.1268C66.6396 20.6046 67.0099 19.241 67.7503 18.0359C68.4909 16.8308 69.4958 15.8794 70.7652 15.1818C72.0346 14.4629 73.4734 14.1035 75.0812 14.1035C76.6892 14.1035 78.1278 14.4524 79.3972 15.15C80.6666 15.8477 81.6717 16.8097 82.4121 18.0359C83.1526 19.241 83.5229 20.6046 83.5229 22.1268C83.5229 23.649 83.1526 25.0232 82.4121 26.2494C81.6717 27.4757 80.6666 28.4482 79.3972 29.167C78.1278 29.8647 76.6892 30.2135 75.0812 30.2135ZM75.0812 25.8055C75.7794 25.8055 76.393 25.6575 76.9219 25.3615C77.4508 25.0444 77.8528 24.611 78.1278 24.0613C78.424 23.4905 78.5721 22.8456 78.5721 22.1268C78.5721 21.408 78.424 20.7843 78.1278 20.2558C77.8316 19.7061 77.4191 19.2833 76.8901 18.9873C76.3824 18.6701 75.7794 18.5116 75.0812 18.5116C74.4042 18.5116 73.8013 18.6701 73.2723 18.9873C72.7434 19.2833 72.3308 19.7061 72.0346 20.2558C71.7384 20.8055 71.5904 21.4397 71.5904 22.1585C71.5904 22.8562 71.7384 23.4905 72.0346 24.0613C72.3308 24.611 72.7434 25.0444 73.2723 25.3615C73.8013 25.6575 74.4042 25.8055 75.0812 25.8055Z" fill="#E5C96C"/>
<path fill-rule="evenodd" clip-rule="evenodd" d="M87.3684 35.8897C88.6589 36.4816 90.1505 36.7776 91.8431 36.7776C93.4933 36.7776 94.9637 36.4499 96.2543 35.7945C97.5449 35.1391 98.5603 34.2301 99.3008 33.0673C100.041 31.9045 100.412 30.5303 100.412 28.9446V14.452H95.6512V15.4875C95.2972 15.1897 94.8951 14.9397 94.4454 14.7374C93.6202 14.3357 92.6787 14.1348 91.6209 14.1348C90.2034 14.1348 88.9445 14.4731 87.8444 15.1496C86.7441 15.805 85.8768 16.7141 85.242 17.8769C84.6073 19.0186 84.29 20.3082 84.29 21.7459C84.29 23.1624 84.6073 24.452 85.242 25.6148C85.8768 26.7776 86.7441 27.6973 87.8444 28.3738C88.9445 29.0503 90.2034 29.3886 91.6209 29.3886C92.6576 29.3886 93.599 29.1878 94.4454 28.7861C94.8552 28.5915 95.2255 28.3622 95.5561 28.0981V29.0715C95.5561 30.1497 95.207 30.9848 94.5088 31.5768C93.8318 32.1688 92.8903 32.4647 91.6844 32.4647C90.7112 32.4647 89.8755 32.2956 89.1773 31.9573C88.5003 31.6191 87.8866 31.1222 87.3365 30.4668L84.3535 33.4478C85.0939 34.5049 86.0989 35.3189 87.3684 35.8897ZM94.2866 24.6317C93.8 24.9277 93.2183 25.0757 92.5412 25.0757C91.8642 25.0757 91.2718 24.9277 90.764 24.6317C90.2773 24.3357 89.8966 23.934 89.6216 23.4266C89.3465 22.8981 89.209 22.3378 89.209 21.7459C89.209 21.1116 89.3465 20.5408 89.6216 20.0334C89.8966 19.526 90.288 19.1243 90.7957 18.8283C91.3035 18.5323 91.8853 18.3843 92.5412 18.3843C93.2183 18.3843 93.8 18.5323 94.2866 18.8283C94.7944 19.1243 95.1752 19.526 95.4292 20.0334C95.7042 20.5408 95.8417 21.1116 95.8417 21.7459C95.8417 22.3801 95.7042 22.9509 95.4292 23.4583C95.1752 23.9446 94.7944 24.3357 94.2866 24.6317Z" fill="#E5C96C"/>
<path fill-rule="evenodd" clip-rule="evenodd" d="M110.631 30.2135C109.044 30.2135 107.605 29.8647 106.315 29.167C105.045 28.4482 104.04 27.4757 103.3 26.2494C102.559 25.0232 102.189 23.649 102.189 22.1268C102.189 20.6046 102.559 19.241 103.3 18.0359C104.04 16.8308 105.045 15.8794 106.315 15.1818C107.584 14.4629 109.023 14.1035 110.631 14.1035C112.238 14.1035 113.677 14.4524 114.946 15.15C116.216 15.8477 117.221 16.8097 117.961 18.0359C118.702 19.241 119.072 20.6046 119.072 22.1268C119.072 23.649 118.702 25.0232 117.961 26.2494C117.221 27.4757 116.216 28.4482 114.946 29.167C113.677 29.8647 112.238 30.2135 110.631 30.2135ZM110.631 25.8055C111.329 25.8055 111.942 25.6575 112.471 25.3615C113 25.0444 113.402 24.611 113.677 24.0613C113.973 23.4905 114.122 22.8456 114.122 22.1268C114.122 21.408 113.973 20.7843 113.677 20.2558C113.381 19.7061 112.969 19.2833 112.439 18.9873C111.932 18.6701 111.329 18.5116 110.631 18.5116C109.954 18.5116 109.35 18.6701 108.822 18.9873C108.292 19.2833 107.88 19.7061 107.584 20.2558C107.288 20.8055 107.14 21.4397 107.14 22.1585C107.14 22.8562 107.288 23.4905 107.584 24.0613C107.88 24.611 108.292 25.0444 108.822 25.3615C109.35 25.6575 109.954 25.8055 110.631 25.8055Z" fill="#E5C96C"/>
<path fill-rule="evenodd" clip-rule="evenodd" d="M137.38 30.1814C136.344 30.1814 135.392 29.9806 134.524 29.5789C134.068 29.3675 133.655 29.1151 133.287 28.8217V36.3654H128.495V14.452H133.35V15.5157C133.702 15.2278 134.094 14.9789 134.524 14.7691C135.392 14.3462 136.344 14.1348 137.38 14.1348C138.84 14.1348 140.131 14.4837 141.252 15.1814C142.395 15.879 143.283 16.8304 143.918 18.0355C144.574 19.2406 144.901 20.6148 144.901 22.1581C144.901 23.7015 144.574 25.0757 143.918 26.2808C143.283 27.4859 142.395 28.4372 141.252 29.1349C140.131 29.8326 138.84 30.1814 137.38 30.1814ZM136.492 25.8051C137.19 25.8051 137.793 25.6465 138.301 25.3294C138.83 25.0123 139.242 24.5788 139.539 24.0292C139.835 23.4795 139.983 22.8558 139.983 22.1581C139.983 21.4393 139.835 20.8051 139.539 20.2554C139.242 19.7057 138.83 19.2829 138.301 18.9869C137.793 18.6697 137.201 18.5112 136.523 18.5112C135.847 18.5112 135.243 18.6697 134.715 18.9869C134.207 19.2829 133.805 19.7057 133.509 20.2554C133.213 20.8051 133.065 21.4393 133.065 22.1581C133.065 22.8558 133.202 23.4795 133.477 24.0292C133.773 24.5788 134.186 25.0123 134.715 25.3294C135.243 25.6465 135.836 25.8051 136.492 25.8051Z" fill="#E5C96C"/>
<path d="M149.654 29.8958C150.542 30.1284 151.441 30.2446 152.351 30.2446C154.276 30.2446 155.799 29.8007 156.921 28.9127C158.063 28.0248 158.634 26.8303 158.634 25.3292C158.634 24.3567 158.455 23.5744 158.095 22.9825C157.736 22.3694 157.27 21.8831 156.699 21.5237C156.127 21.1643 155.524 20.8788 154.89 20.6674C154.255 20.456 153.652 20.2763 153.081 20.1283C152.51 19.9803 152.045 19.8112 151.684 19.6209C151.325 19.4306 151.145 19.1769 151.145 18.8598C151.145 18.5638 151.283 18.3418 151.557 18.1938C151.832 18.0247 152.245 17.9402 152.795 17.9402C153.366 17.9402 153.948 18.0564 154.54 18.289C155.154 18.5215 155.704 18.9233 156.19 19.4941L158.951 16.7034C158.254 15.8154 157.344 15.1494 156.223 14.7055C155.123 14.2404 153.917 14.0078 152.605 14.0078C151.357 14.0078 150.267 14.2192 149.337 14.642C148.405 15.0649 147.685 15.6463 147.178 16.3862C146.671 17.105 146.416 17.9613 146.416 18.955C146.416 19.8852 146.597 20.6569 146.956 21.27C147.315 21.8619 147.781 22.3271 148.352 22.6653C148.923 23.0036 149.527 23.2679 150.161 23.4581C150.796 23.6484 151.399 23.8281 151.97 23.9973C152.541 24.1453 153.007 24.325 153.366 24.5364C153.748 24.7267 153.938 25.0121 153.938 25.3926C153.938 25.6886 153.779 25.9211 153.462 26.0903C153.165 26.2594 152.732 26.344 152.161 26.344C151.335 26.344 150.573 26.196 149.876 25.9C149.177 25.5829 148.574 25.1495 148.067 24.5998L145.306 27.3905C145.835 27.9613 146.47 28.4688 147.21 28.9127C147.972 29.3355 148.786 29.6632 149.654 29.8958Z" fill="#E5C96C"/>
<path d="M167.488 30.2142C166.071 30.2142 164.812 29.9288 163.712 29.358C162.633 28.766 161.787 27.9626 161.174 26.9478C160.559 25.9119 160.253 24.728 160.253 23.396V14.4531H165.108V23.3326C165.108 23.8611 165.192 24.3157 165.363 24.6962C165.553 25.0768 165.828 25.3728 166.187 25.5842C166.547 25.7956 166.981 25.9013 167.488 25.9013C168.208 25.9013 168.779 25.6793 169.202 25.2353C169.626 24.7702 169.837 24.136 169.837 23.3326V14.4531H174.692V23.3643C174.692 24.7174 174.386 25.9119 173.772 26.9478C173.158 27.9626 172.313 28.766 171.233 29.358C170.154 29.9288 168.906 30.2142 167.488 30.2142Z" fill="#E5C96C"/>
<path d="M181.961 14.452H177.106V29.8643H181.961V20.8579C181.961 20.3294 182.068 19.8854 182.279 19.526C182.512 19.1666 182.819 18.8917 183.199 18.7015C183.581 18.49 184.014 18.3843 184.5 18.3843C185.199 18.3843 185.78 18.6063 186.246 19.0503C186.733 19.4731 186.976 20.0757 186.976 20.8579V29.8643H191.832V20.8579C191.832 20.3294 191.938 19.8854 192.149 19.526C192.382 19.1666 192.688 18.8917 193.069 18.7015C193.45 18.49 193.884 18.3843 194.37 18.3843C195.069 18.3843 195.65 18.6063 196.116 19.0503C196.602 19.4731 196.845 20.0757 196.845 20.8579V29.8643H201.702V20.3188C201.702 19.0292 201.426 17.9298 200.876 17.0207C200.347 16.0904 199.617 15.3822 198.686 14.896C197.777 14.3885 196.729 14.1348 195.544 14.1348C194.338 14.1348 193.249 14.3991 192.276 14.9277C191.643 15.2644 191.091 15.699 190.618 16.2314C190.176 15.6745 189.64 15.2188 189.007 14.8642C188.161 14.378 187.198 14.1348 186.119 14.1348C184.977 14.1348 183.951 14.378 183.041 14.8642C182.645 15.0665 182.286 15.3088 181.961 15.5911V14.452Z" fill="#E5C96C"/>
</svg>
