<svg width="171" height="40" viewBox="0 0 171 40" fill="none" xmlns="http://www.w3.org/2000/svg">
<path d="M52.1204 27.9998H64.081V24.3998H56.3714V10.8398H52.1204V27.9998Z" fill="#E5C96C"/>
<path d="M71.1666 25.599C69.4614 25.599 68.5727 24.111 68.5727 21.879C68.5727 19.647 69.4614 18.135 71.1666 18.135C72.8718 18.135 73.7845 19.647 73.7845 21.879C73.7845 24.111 72.8718 25.599 71.1666 25.599ZM71.1906 28.383C75.1534 28.383 77.7473 25.575 77.7473 21.879C77.7473 18.183 75.1534 15.375 71.1906 15.375C67.2518 15.375 64.6099 18.183 64.6099 21.879C64.6099 25.575 67.2518 28.383 71.1906 28.383Z" fill="#E5C96C"/>
<path d="M84.6071 32.2476C86.4324 32.2476 88.0416 31.8396 89.1224 30.8796C90.1071 29.9916 90.7556 28.6476 90.7556 26.7996V15.7116H87.0089V17.0316H86.9608C86.2403 15.9996 85.1355 15.3516 83.5023 15.3516C80.4521 15.3516 78.3386 17.8956 78.3386 21.4956C78.3386 25.2636 80.9085 27.3276 83.6705 27.3276C85.1595 27.3276 86.0962 26.7276 86.8167 25.9116H86.9128V27.1356C86.9128 28.6236 86.2163 29.4876 84.5591 29.4876C83.2622 29.4876 82.6137 28.9356 82.3975 28.2876H78.6028C78.9871 30.8556 81.2207 32.2476 84.6071 32.2476ZM84.5831 24.4236C83.1181 24.4236 82.1574 23.2236 82.1574 21.3756C82.1574 19.5036 83.1181 18.3036 84.5831 18.3036C86.2163 18.3036 87.0809 19.6956 87.0809 21.3516C87.0809 23.0796 86.2883 24.4236 84.5831 24.4236Z" fill="#E5C96C"/>
<path d="M98.4598 25.599C96.7546 25.599 95.8659 24.111 95.8659 21.879C95.8659 19.647 96.7546 18.135 98.4598 18.135C100.165 18.135 101.078 19.647 101.078 21.879C101.078 24.111 100.165 25.599 98.4598 25.599ZM98.4838 28.383C102.447 28.383 105.041 25.575 105.041 21.879C105.041 18.183 102.447 15.375 98.4838 15.375C94.545 15.375 91.9031 18.183 91.9031 21.879C91.9031 25.575 94.545 28.383 98.4838 28.383Z" fill="#E5C96C"/>
<path d="M106.183 27.9998H110.098V15.7118H106.183V27.9998ZM106.183 14.0078H110.098V10.8398H106.183V14.0078Z" fill="#E5C96C"/>
<path d="M111.797 32.0556H115.712V26.7276H115.76C116.529 27.7596 117.657 28.3836 119.242 28.3836C122.461 28.3836 124.598 25.8396 124.598 21.8556C124.598 18.1596 122.605 15.3516 119.339 15.3516C117.657 15.3516 116.456 16.0956 115.616 17.1996H115.544V15.7116H111.797V32.0556ZM118.234 25.3596C116.553 25.3596 115.592 23.9916 115.592 21.9996C115.592 20.0076 116.456 18.4956 118.162 18.4956C119.843 18.4956 120.635 19.8876 120.635 21.9996C120.635 24.0876 119.723 25.3596 118.234 25.3596Z" fill="#E5C96C"/>
<path d="M130.972 28.3836C134.19 28.3836 136.568 26.9916 136.568 24.3036C136.568 21.1596 134.022 20.6076 131.86 20.2476C130.299 19.9596 128.906 19.8396 128.906 18.9756C128.906 18.2076 129.651 17.8476 130.611 17.8476C131.692 17.8476 132.437 18.1836 132.581 19.2876H136.183C135.991 16.8636 134.118 15.3516 130.635 15.3516C127.729 15.3516 125.327 16.6956 125.327 19.2876C125.327 22.1676 127.609 22.7436 129.747 23.1036C131.38 23.3916 132.869 23.5116 132.869 24.6156C132.869 25.4076 132.124 25.8396 130.947 25.8396C129.651 25.8396 128.834 25.2396 128.69 24.0156H124.991C125.111 26.7276 127.369 28.3836 130.972 28.3836Z" fill="#E5C96C"/>
<path d="M141.886 28.3589C143.591 28.3589 144.672 27.6869 145.561 26.4869H145.633V27.9989H149.379V15.7109H145.464V22.5749C145.464 24.0389 144.648 25.0469 143.303 25.0469C142.054 25.0469 141.454 24.3029 141.454 22.9589V15.7109H137.563V23.7749C137.563 26.5109 139.052 28.3589 141.886 28.3589Z" fill="#E5C96C"/>
<path d="M151.081 27.9996H154.996V21.1116C154.996 19.6476 155.717 18.6156 156.942 18.6156C158.118 18.6156 158.671 19.3836 158.671 20.7036V27.9996H162.586V21.1116C162.586 19.6476 163.282 18.6156 164.531 18.6156C165.708 18.6156 166.26 19.3836 166.26 20.7036V27.9996H170.175V20.0076C170.175 17.2476 168.782 15.3516 165.996 15.3516C164.411 15.3516 163.09 16.0236 162.129 17.5116H162.081C161.457 16.1916 160.232 15.3516 158.623 15.3516C156.845 15.3516 155.669 16.1916 154.9 17.4636H154.828V15.7116H151.081V27.9996Z" fill="#E5C96C"/>
<path fill-rule="evenodd" clip-rule="evenodd" d="M20.9212 40C31.9748 40 40.9356 31.0457 40.9356 20C40.9356 8.95431 31.9748 0 20.9212 0C9.86748 0 0.906738 8.95431 0.906738 20C0.906738 31.0457 9.86748 40 20.9212 40ZM27.165 9.31684C27.4689 8.23805 26.4212 7.60013 25.4644 8.2813L12.1079 17.7896C11.0703 18.5283 11.2335 20 12.3531 20H15.8702V19.9728H22.725L17.1396 21.9421L14.6774 30.6832C14.3734 31.762 15.421 32.3999 16.3779 31.7187L29.7344 22.2105C30.7721 21.4718 30.6087 20 29.4892 20H24.1556L27.165 9.31684Z" fill="#E5C96C"/>
</svg>
