<svg width="167" height="40" viewBox="0 0 167 40" fill="none" xmlns="http://www.w3.org/2000/svg">
<path d="M48.8162 28.4998H60.7768V24.8998H53.0672V11.3398H48.8162V28.4998Z" fill="#E5C96C"/>
<path d="M67.8634 26.099C66.1581 26.099 65.2695 24.611 65.2695 22.379C65.2695 20.147 66.1581 18.635 67.8634 18.635C69.5686 18.635 70.4812 20.147 70.4812 22.379C70.4812 24.611 69.5686 26.099 67.8634 26.099ZM67.8874 28.883C71.8502 28.883 74.4441 26.075 74.4441 22.379C74.4441 18.683 71.8502 15.875 67.8874 15.875C63.9485 15.875 61.3066 18.683 61.3066 22.379C61.3066 26.075 63.9485 28.883 67.8874 28.883Z" fill="#E5C96C"/>
<path d="M81.3029 32.7476C83.1282 32.7476 84.7374 32.3396 85.8182 31.3796C86.8029 30.4916 87.4514 29.1476 87.4514 27.2996V16.2116H83.7047V17.5316H83.6566C82.9361 16.4996 81.8313 15.8516 80.1981 15.8516C77.1479 15.8516 75.0344 18.3956 75.0344 21.9956C75.0344 25.7636 77.6043 27.8276 80.3663 27.8276C81.8553 27.8276 82.792 27.2276 83.5125 26.4116H83.6086V27.6356C83.6086 29.1236 82.9121 29.9876 81.2549 29.9876C79.958 29.9876 79.3095 29.4356 79.0933 28.7876H75.2986C75.6829 31.3556 77.9165 32.7476 81.3029 32.7476ZM81.2789 24.9236C79.8139 24.9236 78.8532 23.7236 78.8532 21.8756C78.8532 20.0036 79.8139 18.8036 81.2789 18.8036C82.9121 18.8036 83.7767 20.1956 83.7767 21.8516C83.7767 23.5796 82.9841 24.9236 81.2789 24.9236Z" fill="#E5C96C"/>
<path d="M95.1556 26.099C93.4504 26.099 92.5617 24.611 92.5617 22.379C92.5617 20.147 93.4504 18.635 95.1556 18.635C96.8608 18.635 97.7735 20.147 97.7735 22.379C97.7735 24.611 96.8608 26.099 95.1556 26.099ZM95.1796 28.883C99.1425 28.883 101.737 26.075 101.737 22.379C101.737 18.683 99.1425 15.875 95.1796 15.875C91.2408 15.875 88.5989 18.683 88.5989 22.379C88.5989 26.075 91.2408 28.883 95.1796 28.883Z" fill="#E5C96C"/>
<path d="M102.88 28.4998H106.794V16.2118H102.88V28.4998ZM102.88 14.5078H106.794V11.3398H102.88V14.5078Z" fill="#E5C96C"/>
<path d="M108.492 32.5556H112.407V27.2276H112.455C113.223 28.2596 114.352 28.8836 115.937 28.8836C119.156 28.8836 121.293 26.3396 121.293 22.3556C121.293 18.6596 119.3 15.8516 116.033 15.8516C114.352 15.8516 113.151 16.5956 112.311 17.6996H112.239V16.2116H108.492V32.5556ZM114.929 25.8596C113.247 25.8596 112.287 24.4916 112.287 22.4996C112.287 20.5076 113.151 18.9956 114.857 18.9956C116.538 18.9956 117.33 20.3876 117.33 22.4996C117.33 24.5876 116.418 25.8596 114.929 25.8596Z" fill="#E5C96C"/>
<path d="M127.668 28.8836C130.887 28.8836 133.264 27.4916 133.264 24.8036C133.264 21.6596 130.718 21.1076 128.557 20.7476C126.996 20.4596 125.603 20.3396 125.603 19.4756C125.603 18.7076 126.347 18.3476 127.308 18.3476C128.389 18.3476 129.133 18.6836 129.277 19.7876H132.88C132.688 17.3636 130.815 15.8516 127.332 15.8516C124.426 15.8516 122.024 17.1956 122.024 19.7876C122.024 22.6676 124.306 23.2436 126.443 23.6036C128.077 23.8916 129.566 24.0116 129.566 25.1156C129.566 25.9076 128.821 26.3396 127.644 26.3396C126.347 26.3396 125.531 25.7396 125.387 24.5156H121.688C121.808 27.2276 124.066 28.8836 127.668 28.8836Z" fill="#E5C96C"/>
<path d="M138.581 28.8589C140.286 28.8589 141.367 28.1869 142.255 26.9869H142.327V28.4989H146.074V16.2109H142.159V23.0749C142.159 24.5389 141.343 25.5469 139.998 25.5469C138.749 25.5469 138.148 24.8029 138.148 23.4589V16.2109H134.258V24.2749C134.258 27.0109 135.747 28.8589 138.581 28.8589Z" fill="#E5C96C"/>
<path d="M147.778 28.4996H151.693V21.6116C151.693 20.1476 152.413 19.1156 153.638 19.1156C154.815 19.1156 155.368 19.8836 155.368 21.2036V28.4996H159.282V21.6116C159.282 20.1476 159.979 19.1156 161.228 19.1156C162.405 19.1156 162.957 19.8836 162.957 21.2036V28.4996H166.872V20.5076C166.872 17.7476 165.479 15.8516 162.693 15.8516C161.108 15.8516 159.787 16.5236 158.826 18.0116H158.778C158.154 16.6916 156.929 15.8516 155.32 15.8516C153.542 15.8516 152.365 16.6916 151.597 17.9636H151.525V16.2116H147.778V28.4996Z" fill="#E5C96C"/>
<path fill-rule="evenodd" clip-rule="evenodd" d="M8.81109 3.59787C7.3794 4.59823 6.08476 5.78098 4.96091 7.1124C9.55351 6.68633 15.3883 7.38204 22.1623 10.7667C29.3961 14.3809 35.2211 14.5031 39.275 13.7217C38.9072 12.6088 38.444 11.5392 37.8955 10.5224C33.2549 11.0115 27.3056 10.3641 20.3722 6.89998C15.9695 4.70018 12.0885 3.79401 8.81109 3.59787ZM35.1847 6.66665C31.52 2.575 26.1942 0 20.2666 0C18.5258 0 16.8368 0.222107 15.2266 0.63948C17.4074 1.23409 19.7241 2.10399 22.1623 3.32227C27.2386 5.85853 31.6211 6.67516 35.1847 6.66665ZM40.1418 17.6281C35.2442 18.5945 28.4813 18.396 20.3722 14.3444C12.7912 10.5566 6.75731 10.6043 2.68785 11.508C2.4778 11.5546 2.27269 11.6036 2.07254 11.6546C1.53974 12.8125 1.11445 14.0301 0.8093 15.2945C1.13522 15.2075 1.47201 15.1248 1.81949 15.0476C6.75645 13.9513 13.732 13.9989 22.1623 18.2111C29.7435 21.9989 35.7773 21.9512 39.8469 21.0475C39.9863 21.0166 40.1237 20.9846 40.2588 20.9516C40.2736 20.6363 40.281 20.319 40.281 20C40.281 19.1975 40.2337 18.406 40.1418 17.6281ZM39.6053 25.1723C34.7553 26.0196 28.1893 25.6944 20.3722 21.7888C12.7912 18.001 6.75731 18.0487 2.68785 18.9524C1.78455 19.1529 0.971954 19.3972 0.255129 19.6551C0.253175 19.7698 0.252197 19.8848 0.252197 20C0.252197 31.0457 9.21294 40 20.2666 40C29.5303 40 37.3241 33.7109 39.6053 25.1723Z" fill="#E5C96C"/>
</svg>
