<svg width="168" height="40" viewBox="0 0 168 40" fill="none" xmlns="http://www.w3.org/2000/svg">
<path d="M49.7742 28.0291H61.7348V24.4291H54.0252V10.8691H49.7742V28.0291Z" fill="#E5C96C"/>
<path d="M68.8214 25.6303C67.1161 25.6303 66.2275 24.1423 66.2275 21.9102C66.2275 19.6782 67.1161 18.1663 68.8214 18.1663C70.5266 18.1663 71.4392 19.6782 71.4392 21.9102C71.4392 24.1423 70.5266 25.6303 68.8214 25.6303ZM68.8454 28.4142C72.8082 28.4142 75.4021 25.6062 75.4021 21.9102C75.4021 18.2142 72.8082 15.4062 68.8454 15.4062C64.9065 15.4062 62.2646 18.2142 62.2646 21.9102C62.2646 25.6062 64.9065 28.4142 68.8454 28.4142Z" fill="#E5C96C"/>
<path d="M82.2617 32.2769C84.087 32.2769 85.6961 31.8689 86.7769 30.9089C87.7616 30.0209 88.4101 28.6769 88.4101 26.8289V15.7409H84.6634V17.0609H84.6154C83.8949 16.0289 82.7901 15.3809 81.1569 15.3809C78.1067 15.3809 75.9932 17.9249 75.9932 21.5249C75.9932 25.2929 78.563 27.3569 81.325 27.3569C82.8141 27.3569 83.7507 26.7569 84.4713 25.9409H84.5673V27.1649C84.5673 28.6529 83.8708 29.5169 82.2136 29.5169C80.9167 29.5169 80.2682 28.9649 80.0521 28.3169H76.2574C76.6416 30.8849 78.8752 32.2769 82.2617 32.2769ZM82.2377 24.4529C80.7726 24.4529 79.8119 23.2529 79.8119 21.4049C79.8119 19.5329 80.7726 18.3329 82.2377 18.3329C83.8708 18.3329 84.7355 19.7249 84.7355 21.3809C84.7355 23.1089 83.9429 24.4529 82.2377 24.4529Z" fill="#E5C96C"/>
<path d="M96.1134 25.6303C94.4081 25.6303 93.5195 24.1423 93.5195 21.9102C93.5195 19.6782 94.4081 18.1663 96.1134 18.1663C97.8186 18.1663 98.7312 19.6782 98.7312 21.9102C98.7312 24.1423 97.8186 25.6303 96.1134 25.6303ZM96.1374 28.4142C100.1 28.4142 102.694 25.6062 102.694 21.9102C102.694 18.2142 100.1 15.4062 96.1374 15.4062C92.1985 15.4062 89.5566 18.2142 89.5566 21.9102C89.5566 25.6062 92.1985 28.4142 96.1374 28.4142Z" fill="#E5C96C"/>
<path d="M103.837 28.0291H107.752V15.7411H103.837V28.0291ZM103.837 14.0371H107.752V10.8691H103.837V14.0371Z" fill="#E5C96C"/>
<path d="M109.451 32.0849H113.366V26.7569H113.414C114.182 27.7889 115.311 28.4129 116.896 28.4129C120.115 28.4129 122.252 25.8689 122.252 21.8849C122.252 18.1889 120.259 15.3809 116.992 15.3809C115.311 15.3809 114.11 16.1249 113.27 17.2289H113.198V15.7409H109.451V32.0849ZM115.888 25.3889C114.206 25.3889 113.246 24.0209 113.246 22.0289C113.246 20.0369 114.11 18.5249 115.816 18.5249C117.497 18.5249 118.289 19.9169 118.289 22.0289C118.289 24.1169 117.377 25.3889 115.888 25.3889Z" fill="#E5C96C"/>
<path d="M128.625 28.4129C131.844 28.4129 134.221 27.0209 134.221 24.3329C134.221 21.1889 131.676 20.6369 129.514 20.2769C127.953 19.9889 126.56 19.8689 126.56 19.0049C126.56 18.2369 127.304 17.8769 128.265 17.8769C129.346 17.8769 130.09 18.2129 130.234 19.3169H133.837C133.645 16.8929 131.772 15.3809 128.289 15.3809C125.383 15.3809 122.981 16.7249 122.981 19.3169C122.981 22.1969 125.263 22.7729 127.4 23.1329C129.034 23.4209 130.523 23.5409 130.523 24.6449C130.523 25.4369 129.778 25.8689 128.601 25.8689C127.304 25.8689 126.488 25.2689 126.344 24.0449H122.645C122.765 26.7569 125.023 28.4129 128.625 28.4129Z" fill="#E5C96C"/>
<path d="M139.54 28.3902C141.245 28.3902 142.326 27.7182 143.214 26.5182H143.286V28.0302H147.033V15.7422H143.118V22.6062C143.118 24.0702 142.302 25.0782 140.957 25.0782C139.708 25.0782 139.107 24.3342 139.107 22.9902V15.7422H135.217V23.8062C135.217 26.5422 136.706 28.3902 139.54 28.3902Z" fill="#E5C96C"/>
<path d="M148.736 28.0289H152.651V21.1409C152.651 19.6769 153.371 18.6449 154.596 18.6449C155.773 18.6449 156.325 19.4129 156.325 20.7329V28.0289H160.24V21.1409C160.24 19.6769 160.937 18.6449 162.186 18.6449C163.362 18.6449 163.915 19.4129 163.915 20.7329V28.0289H167.83V20.0369C167.83 17.2769 166.437 15.3809 163.651 15.3809C162.065 15.3809 160.744 16.0529 159.784 17.5409H159.736C159.111 16.2209 157.886 15.3809 156.277 15.3809C154.5 15.3809 153.323 16.2209 152.555 17.4929H152.483V15.7409H148.736V28.0289Z" fill="#E5C96C"/>
<path d="M25.8894 1.05386L21.9536 0L18.6368 12.3696L15.6423 1.20224L11.7064 2.2561L14.9417 14.3216L6.88328 6.26898L4.00202 9.14817L12.8411 17.981L1.83342 15.0336L0.778809 18.9666L12.8061 22.187C12.6684 21.5935 12.5955 20.9751 12.5955 20.3397C12.5955 15.8421 16.2442 12.1961 20.745 12.1961C25.2458 12.1961 28.8945 15.8421 28.8945 20.3397C28.8945 20.971 28.8225 21.5856 28.6865 22.1756L39.6171 25.1023L40.6716 21.1693L28.5965 17.9361L39.605 14.9885L38.5503 11.0555L26.4757 14.2885L34.5341 6.23592L31.6528 3.35673L22.9364 12.067L25.8894 1.05386Z" fill="#E5C96C"/>
<path d="M28.6756 22.2227C28.3381 23.6483 27.6257 24.929 26.6482 25.9551L34.5669 33.8682L37.4482 30.989L28.6756 22.2227Z" fill="#E5C96C"/>
<path d="M26.5683 26.0371C25.579 27.0468 24.3288 27.8003 22.9268 28.1886L25.8082 38.9346L29.7441 37.8807L26.5683 26.0371Z" fill="#E5C96C"/>
<path d="M22.7796 28.2284C22.1291 28.3955 21.4474 28.4843 20.7448 28.4843C19.992 28.4843 19.2631 28.3823 18.5711 28.1914L15.687 38.9472L19.6228 40.001L22.7796 28.2284Z" fill="#E5C96C"/>
<path d="M18.4319 28.1521C17.0513 27.7445 15.8233 26.9813 14.8542 25.9688L6.91602 33.9012L9.79728 36.7804L18.4319 28.1521Z" fill="#E5C96C"/>
<path d="M14.7887 25.8971C13.8362 24.8781 13.1424 23.6145 12.8122 22.2109L1.84595 25.1472L2.90056 29.0802L14.7887 25.8971Z" fill="#E5C96C"/>
</svg>
