<svg width="168" height="50" viewBox="0 0 168 50" fill="none" xmlns="http://www.w3.org/2000/svg">
<circle cx="25" cy="25" r="25" fill="#E5C96C"/>
<path d="M29.5503 15.2364C29.8895 15.4964 30.2404 15.7302 30.6172 15.933C31.0263 16.1532 31.457 16.3179 31.9056 16.4388C31.9974 16.4636 32.0902 16.4815 32.1833 16.4963C32.2101 16.4677 32.2371 16.4392 32.2625 16.4094C32.5888 16.0274 32.8063 15.5635 32.9634 15.0865C33.1704 14.4567 33.2772 13.7942 33.2795 13.1314C33.2805 12.8352 33.2634 12.5107 33.1279 12.2414C33.017 12.0205 32.7633 11.8533 32.511 11.9064C32.1615 11.9799 32.0738 12.3903 31.9354 12.6631C31.6006 13.3225 31.0414 13.8639 30.3854 14.2013C30.1049 14.3456 29.8058 14.4537 29.5358 14.6168C29.3938 14.7025 29.259 14.8075 29.1484 14.9311C29.2801 15.0477 29.4357 15.1484 29.5503 15.2364Z" fill="#18555C"/>
<path d="M18.3365 15.5093C18.4336 15.3389 18.5748 15.2095 18.7377 15.1274C20.1273 13.9126 22.1456 13.7243 23.7452 14.69L24.96 15.4236V16.4221C24.7883 16.4221 24.6169 16.376 24.4643 16.2839C24.4643 16.2839 22.7032 15.3326 21.7139 15.3326C19.1445 15.3326 19.1054 17.05 18.7302 16.8365L18.6957 16.8168C18.2356 16.5551 18.0747 15.9697 18.3365 15.5093Z" fill="#18555C"/>
<path d="M31.1834 15.1275C31.3463 15.2095 31.4877 15.3389 31.5846 15.5094C31.8465 15.9697 31.6856 16.5552 31.2252 16.8171L31.1907 16.8368C30.8153 17.0503 30.7765 15.3328 28.207 15.3328C27.2177 15.3328 25.4566 16.2842 25.4566 16.2842C25.3043 16.3762 25.1326 16.4223 24.9609 16.4223V15.4239L26.1758 14.6903C27.7758 13.7241 29.794 13.9126 31.1834 15.1275Z" fill="#18555C"/>
<path d="M25.3391 25.1055C25.3391 19.9535 29.5304 15.7619 34.6827 15.7619H40.2183C40.6496 15.7619 40.999 16.1115 40.999 16.5428C40.999 19.77 38.3735 22.3955 35.1463 22.3955H32.4375C32.1448 23.8491 32.0521 25.3079 32.0245 26.7882C32.0373 29.7387 30.3788 30.4351 29.0605 32.6066L29.5979 34.144C29.941 35.1256 29.7925 36.1749 29.1906 37.023C28.5886 37.8708 27.647 38.3569 26.6073 38.3571C26.6069 38.3571 23.3096 38.3571 23.3096 38.3571C22.2697 38.3571 21.3281 37.8706 20.7262 37.0228C20.1243 36.1747 19.9757 35.1254 20.3189 34.1436L20.8554 32.6088C20.3534 31.7887 19.7931 31.1171 19.1461 30.363C18.4834 29.572 18.029 28.5761 17.9335 27.5476C17.8793 27.0503 17.8973 26.5465 17.8746 26.049C17.8228 24.8169 17.7236 23.6063 17.4793 22.3953H14.7705C11.5435 22.3953 8.91797 19.7698 8.91797 16.5426C8.91797 16.1113 9.26759 15.7617 9.69867 15.7617H15.2343C20.3863 15.7617 24.5777 19.9533 24.5777 25.1053C24.5777 26.1576 24.4017 27.1947 24.0546 28.1879L21.7931 34.6586C21.607 35.191 21.5892 35.8397 21.9445 36.3035C22.3402 36.8201 23.3917 37.5271 24.0292 37.0082C24.1616 36.9005 24.2451 36.7216 24.2045 36.5556C24.172 36.4227 24.0672 36.3179 23.9506 36.2462C23.7137 36.1001 23.4272 36.066 23.1558 36.004C22.7532 35.9124 22.3802 35.6971 22.3059 35.2587C22.2469 34.9105 22.4505 34.5245 22.7851 34.412C23.1339 34.2946 23.513 34.4735 23.8059 34.6962C24.3479 35.1082 24.8082 35.7077 24.9584 36.3746C25.1083 35.7074 25.5688 35.108 26.1108 34.6962C26.4038 34.4735 26.7828 34.2943 27.1317 34.412C27.4662 34.5247 27.6698 34.9105 27.6109 35.2587C27.5365 35.6971 27.1635 35.9124 26.7609 36.004C26.4895 36.0658 26.2033 36.0999 25.9662 36.2462C25.8496 36.3181 25.745 36.4227 25.7123 36.5556C25.6716 36.7214 25.7553 36.9003 25.8876 37.0082C26.5251 37.5271 27.5765 36.8201 27.9723 36.3035C28.3276 35.8395 28.3097 35.191 28.1236 34.6586L25.8622 28.1879C25.5152 27.1949 25.3391 26.1576 25.3391 25.1055Z" fill="#18555C"/>
<path d="M20.8117 30.8009C19.9948 30.204 19.2099 29.7218 18.7343 28.8385C18.0223 27.5479 18.3191 25.9893 18.3863 24.5717C18.3906 24.5244 18.395 24.4771 18.3995 24.4297C18.508 23.2903 19.0589 22.2376 19.927 21.4914C20.3284 21.1465 20.5701 20.8344 20.1328 20.8344H14.7705C12.6711 20.8344 10.3954 18.8226 10.0273 16.8281H15.0821C19.2448 16.8281 23.126 19.8522 23.3458 24.0092C23.3996 25.0278 22.9153 26.7156 22.5805 27.6736L21.3515 31.1903C21.1692 31.0629 20.9894 30.9331 20.8117 30.8009ZM35.3484 20.8346H28.1829C29.6163 18.4923 32.0785 16.9425 34.8712 16.9425H39.6905C39.3116 19.1542 37.5087 20.8346 35.3484 20.8346Z" fill="#18555C"/>
<path d="M20.366 15.2364C20.0267 15.4964 19.6759 15.7302 19.299 15.933C18.8899 16.1532 18.4592 16.3179 18.0107 16.4388C17.9188 16.4636 17.826 16.4815 17.7329 16.4963C17.7061 16.4677 17.6791 16.4392 17.6537 16.4094C17.3275 16.0274 17.1099 15.5635 16.9529 15.0865C16.7456 14.4567 16.639 13.7942 16.6368 13.1314C16.6357 12.8352 16.6528 12.5107 16.7883 12.2414C16.8992 12.0205 17.153 11.8533 17.4053 11.9064C17.7549 11.9799 17.8424 12.3903 17.9808 12.6631C18.3156 13.3225 18.8748 13.8639 19.5308 14.2013C19.8114 14.3456 20.1104 14.4537 20.3804 14.6168C20.5224 14.7025 20.6573 14.8075 20.7678 14.9311C20.6361 15.0477 20.4805 15.1484 20.366 15.2364Z" fill="#18555C"/>
<path d="M29.1677 25.6929C29.6983 25.6929 30.1284 25.2627 30.1284 24.7322C30.1284 24.2016 29.6983 23.7715 29.1677 23.7715C28.6371 23.7715 28.207 24.2016 28.207 24.7322C28.207 25.2627 28.6371 25.6929 29.1677 25.6929Z" fill="#E5C96C"/>
<path d="M20.7537 25.6929C21.2842 25.6929 21.7143 25.2627 21.7143 24.7322C21.7143 24.2016 21.2842 23.7715 20.7537 23.7715C20.2231 23.7715 19.793 24.2016 19.793 24.7322C19.793 25.2627 20.2231 25.6929 20.7537 25.6929Z" fill="#E5C96C"/>
<path d="M65.8694 34L66.4294 16.108H72.5334L75.4874 26.776H75.6694L78.6234 16.108H84.7274L85.2874 34H81.0454L80.9194 28.134L80.7934 20.994H80.5834L77.5174 31.9H73.6254L70.5594 20.994H70.3354L70.2234 28.148L70.1114 34H65.8694ZM88.1686 34V20.238H92.4526V34H88.1686ZM90.3106 18.936C89.5079 18.936 88.9246 18.754 88.5606 18.39C88.1966 18.0167 88.0146 17.5173 88.0146 16.892V16.794C88.0146 16.1687 88.1966 15.674 88.5606 15.31C88.9246 14.946 89.5079 14.764 90.3106 14.764C91.0946 14.764 91.6686 14.946 92.0326 15.31C92.4059 15.674 92.5926 16.1687 92.5926 16.794V16.892C92.5926 17.5267 92.4059 18.026 92.0326 18.39C91.6686 18.754 91.0946 18.936 90.3106 18.936ZM95.3326 34V15.506H99.6166V34H95.3326ZM111.247 34L107.187 28.064H106.067V25.544H107.187L111.135 20.238H116.049L110.813 27.07V26.258L116.245 34H111.247ZM102.483 34V15.506H106.739V34H102.483ZM128.579 30.486V34H117.127V30.808L123.343 23.738H117.169V20.238H128.495V23.416L122.265 30.486H128.579ZM137.369 34.35C134.868 34.35 133.02 33.7947 131.825 32.684C130.631 31.564 130.033 29.9353 130.033 27.798V26.37C130.033 24.2607 130.593 22.646 131.713 21.526C132.833 20.3967 134.462 19.832 136.599 19.832C138.037 19.832 139.231 20.0793 140.183 20.574C141.145 21.0593 141.863 21.7547 142.339 22.66C142.825 23.5653 143.067 24.6527 143.067 25.922V26.384C143.067 26.7387 143.049 27.1027 143.011 27.476C142.983 27.84 142.941 28.1807 142.885 28.498H139.021C139.059 27.9567 139.082 27.448 139.091 26.972C139.101 26.4867 139.105 26.048 139.105 25.656C139.105 25.0867 139.017 24.6107 138.839 24.228C138.662 23.836 138.387 23.5373 138.013 23.332C137.649 23.1267 137.178 23.024 136.599 23.024C135.741 23.024 135.111 23.2573 134.709 23.724C134.317 24.1813 134.121 24.8347 134.121 25.684V26.944L134.149 27.406V28.386C134.149 28.7407 134.205 29.0767 134.317 29.394C134.439 29.7113 134.644 29.9913 134.933 30.234C135.232 30.4673 135.638 30.654 136.151 30.794C136.674 30.9247 137.337 30.99 138.139 30.99C138.989 30.99 139.805 30.9107 140.589 30.752C141.373 30.584 142.125 30.36 142.843 30.08L142.493 33.3C141.859 33.6267 141.107 33.8833 140.239 34.07C139.371 34.2567 138.415 34.35 137.369 34.35ZM132.301 28.498V25.852H142.017V28.498H132.301ZM154.233 34V25.908C154.233 25.404 154.168 24.97 154.037 24.606C153.906 24.2327 153.687 23.948 153.379 23.752C153.071 23.556 152.651 23.458 152.119 23.458C151.68 23.458 151.293 23.5373 150.957 23.696C150.621 23.8453 150.336 24.0553 150.103 24.326C149.879 24.5873 149.711 24.886 149.599 25.222L148.941 23.22H149.669C149.818 22.5947 150.061 22.0347 150.397 21.54C150.742 21.0453 151.214 20.6533 151.811 20.364C152.408 20.0653 153.164 19.916 154.079 19.916C155.106 19.916 155.946 20.1167 156.599 20.518C157.252 20.91 157.733 21.498 158.041 22.282C158.358 23.066 158.517 24.046 158.517 25.222V34H154.233ZM145.385 34V20.238H149.641L149.501 23.682L149.669 24.088V34H145.385ZM163.148 34.378C162.346 34.378 161.753 34.1727 161.37 33.762C160.997 33.3513 160.81 32.7773 160.81 32.04V31.886C160.81 31.158 160.997 30.584 161.37 30.164C161.753 29.744 162.346 29.534 163.148 29.534C163.932 29.534 164.516 29.744 164.898 30.164C165.281 30.584 165.472 31.158 165.472 31.886V32.04C165.472 32.7773 165.281 33.3513 164.898 33.762C164.516 34.1727 163.932 34.378 163.148 34.378Z" fill="white"/>
</svg>
