<svg width="30" height="30" viewBox="0 0 30 30" fill="none" xmlns="http://www.w3.org/2000/svg">
<g clip-path="url(#clip0_297_57)">
<path fill-rule="evenodd" clip-rule="evenodd" d="M14.6473 1.01364C14.6941 0.856498 14.8389 0.748047 15.0032 0.748047C15.1675 0.748047 15.3123 0.856498 15.3591 1.01364C15.3591 1.01364 16.0104 3.19685 16.7085 5.53852C17.8209 9.26921 20.7392 12.1875 24.4699 13.2999C26.8115 13.998 28.9947 14.6493 28.9947 14.6493C29.1519 14.6961 29.2603 14.8409 29.2603 15.0052C29.2603 15.1695 29.1519 15.3143 28.9947 15.361C28.9947 15.361 26.8115 16.0124 24.4699 16.7104C20.7392 17.8228 17.8209 20.7411 16.7085 24.4718C16.0104 26.8135 15.3591 28.9967 15.3591 28.9967C15.3123 29.1538 15.1675 29.2623 15.0032 29.2623C14.8389 29.2623 14.6941 29.1538 14.6473 28.9967C14.6473 28.9967 13.996 26.8135 13.2979 24.4718C12.1856 20.7411 9.26724 17.8228 5.53655 16.7104C3.1949 16.0124 1.01169 15.361 1.01169 15.361C0.854535 15.3143 0.746094 15.1695 0.746094 15.0052C0.746094 14.8409 0.854535 14.6961 1.01169 14.6493C1.01169 14.6493 3.1949 13.998 5.53655 13.2999C9.26724 12.1875 12.1856 9.26921 13.2979 5.53852C13.996 3.19685 14.6473 1.01364 14.6473 1.01364Z" fill="#18555C"/>
</g>
<defs>
<clipPath id="clip0_297_57">
<rect width="30" height="30" fill="white"/>
</clipPath>
</defs>
</svg>
