<svg width="30" height="31" viewBox="0 0 30 31" fill="none" xmlns="http://www.w3.org/2000/svg">
<g clip-path="url(#clip0_565_3414)">
<path d="M14.721 20.6861C20.0466 20.6861 24.3638 16.3689 24.3638 11.0432C24.3638 5.71764 20.0466 1.40039 14.721 1.40039C9.39538 1.40039 5.07812 5.71764 5.07812 11.0432C5.07812 16.3689 9.39538 20.6861 14.721 20.6861Z" stroke="#E5C96C" stroke-width="1.5" stroke-linecap="round" stroke-linejoin="round"/>
<path d="M14.7154 15.3292C17.0823 15.3292 19.0011 13.4105 19.0011 11.0435C19.0011 8.67659 17.0823 6.75781 14.7154 6.75781C12.3485 6.75781 10.4297 8.67659 10.4297 11.0435C10.4297 13.4105 12.3485 15.3292 14.7154 15.3292Z" stroke="#E5C96C" stroke-width="1.5" stroke-linecap="round" stroke-linejoin="round"/>
<path d="M12.8543 20.5155L10.9686 28.4441C10.9313 28.5948 10.8623 28.7358 10.7662 28.8577C10.6702 28.9796 10.5492 29.0797 10.4115 29.1512C10.2661 29.2143 10.1093 29.2469 9.95077 29.2469C9.79226 29.2469 9.63545 29.2143 9.49005 29.1512L2.37577 26.0441C2.22654 25.9735 2.09523 25.8701 1.9917 25.7415C1.88817 25.613 1.8151 25.4627 1.77799 25.3018C1.74087 25.141 1.74067 24.9738 1.7774 24.8129C1.81413 24.652 1.88683 24.5015 1.99005 24.3727L7.4972 17.4727" stroke="#E5C96C" stroke-width="1.5" stroke-linecap="round" stroke-linejoin="round"/>
<path d="M17.1406 20.4073L19.0692 28.443C19.1075 28.5963 19.1793 28.7391 19.2793 28.8614C19.3793 28.9836 19.5052 29.0822 19.6478 29.1502C19.7892 29.2141 19.9426 29.2471 20.0978 29.2471C20.2529 29.2471 20.4064 29.2141 20.5478 29.1502L27.6192 26.043C27.7707 25.9733 27.9038 25.8692 28.0079 25.739C28.1121 25.6088 28.1844 25.4561 28.2192 25.293C28.2598 25.1335 28.2616 24.9666 28.2243 24.8062C28.187 24.6459 28.1118 24.4968 28.0049 24.3716L22.2621 17.0645" stroke="#E5C96C" stroke-width="1.5" stroke-linecap="round" stroke-linejoin="round"/>
</g>
<defs>
<clipPath id="clip0_565_3414">
<rect width="30" height="30" fill="white" transform="translate(0 0.328125)"/>
</clipPath>
</defs>
</svg>
