<svg width="50" height="51" viewBox="0 0 50 51" fill="none" xmlns="http://www.w3.org/2000/svg">
<path d="M38 5.84766H12C11.4006 5.86412 10.8135 6.0214 10.2861 6.3068C9.75875 6.5922 9.30595 6.9977 8.96432 7.49051L2.46432 16.4905C1.98166 17.1726 1.74062 17.9963 1.77944 18.8309C1.81826 19.6656 2.13472 20.4634 2.67861 21.0977L22.1786 43.5619C22.5124 43.9921 22.9402 44.3402 23.4292 44.5797C23.9182 44.8192 24.4555 44.9437 25 44.9437C25.5445 44.9437 26.0818 44.8192 26.5708 44.5797C27.0598 44.3402 27.4876 43.9921 27.8215 43.5619L47.3215 21.0977C47.8653 20.4634 48.1818 19.6656 48.2206 18.8309C48.2594 17.9963 48.0184 17.1726 47.5357 16.4905L41.0357 7.49051C40.6941 6.9977 40.2413 6.5922 39.7139 6.3068C39.1866 6.0214 38.5995 5.86412 38 5.84766V5.84766Z" stroke="#18555C" stroke-width="2" stroke-linecap="round" stroke-linejoin="round"/>
<path d="M23.143 5.8125L14.4287 19.3125L25.0001 44.8482" stroke="#18555C" stroke-width="2" stroke-linecap="round" stroke-linejoin="round"/>
<path d="M26.9643 5.8125L35.6429 19.3125L25 44.8482" stroke="#18555C" stroke-width="2" stroke-linecap="round" stroke-linejoin="round"/>
<path d="M1.85718 19.3125H48.1429" stroke="#18555C" stroke-width="2" stroke-linecap="round" stroke-linejoin="round"/>
</svg>
