<svg width="30" height="30" viewBox="0 0 30 30" fill="none" xmlns="http://www.w3.org/2000/svg">
<path d="M9.64296 27.8577C14.3768 27.8577 18.2144 24.0201 18.2144 19.2863C18.2144 14.5524 14.3768 10.7148 9.64296 10.7148C4.90909 10.7148 1.07153 14.5524 1.07153 19.2863C1.07153 24.0201 4.90909 27.8577 9.64296 27.8577Z" stroke="#E5C96C" stroke-width="1.5" stroke-linecap="round" stroke-linejoin="round"/>
<path d="M20.3573 27.8577C25.0912 27.8577 28.9287 24.0201 28.9287 19.2863C28.9287 14.5524 25.0912 10.7148 20.3573 10.7148C15.6234 10.7148 11.7859 14.5524 11.7859 19.2863C11.7859 24.0201 15.6234 27.8577 20.3573 27.8577Z" stroke="#E5C96C" stroke-width="1.5" stroke-linecap="round" stroke-linejoin="round"/>
<path d="M15.0001 19.2854C19.734 19.2854 23.5716 15.4479 23.5716 10.714C23.5716 5.98014 19.734 2.14258 15.0001 2.14258C10.2663 2.14258 6.42871 5.98014 6.42871 10.714C6.42871 15.4479 10.2663 19.2854 15.0001 19.2854Z" stroke="#E5C96C" stroke-width="1.5" stroke-linecap="round" stroke-linejoin="round"/>
</svg>
