<svg width="80" height="81" viewBox="0 0 80 81" fill="none" xmlns="http://www.w3.org/2000/svg">
<path d="M39.257 54.6141C53.4586 54.6141 64.9713 43.1014 64.9713 28.8998C64.9713 14.6982 53.4586 3.18555 39.257 3.18555C25.0554 3.18555 13.5427 14.6982 13.5427 28.8998C13.5427 43.1014 25.0554 54.6141 39.257 54.6141Z" stroke="#E5C96C" stroke-width="1.5" stroke-linecap="round" stroke-linejoin="round"/>
<path d="M39.2572 40.3278C45.569 40.3278 50.6858 35.2111 50.6858 28.8993C50.6858 22.5874 45.569 17.4707 39.2572 17.4707C32.9454 17.4707 27.8286 22.5874 27.8286 28.8993C27.8286 35.2111 32.9454 40.3278 39.2572 40.3278Z" stroke="#E5C96C" stroke-width="1.5" stroke-linecap="round" stroke-linejoin="round"/>
<path d="M34.2856 54.1573L29.2571 75.3001C29.1576 75.7019 28.9736 76.0779 28.7174 76.4031C28.4612 76.7282 28.1387 76.9951 27.7714 77.1858C27.3836 77.3541 26.9655 77.441 26.5428 77.441C26.1201 77.441 25.7019 77.3541 25.3142 77.1858L6.34278 68.9001C5.94485 68.712 5.59469 68.4362 5.31861 68.0933C5.04252 67.7505 4.84768 67.3496 4.7487 66.9207C4.64973 66.4918 4.64919 66.0461 4.74713 65.617C4.84508 65.1878 5.03895 64.7865 5.31421 64.443L19.9999 46.043" stroke="#E5C96C" stroke-width="1.5" stroke-linecap="round" stroke-linejoin="round"/>
<path d="M45.7142 53.8713L50.8571 75.2999C50.9594 75.7085 51.1507 76.0894 51.4174 76.4154C51.6842 76.7415 52.0197 77.0044 52.3999 77.1856C52.7771 77.356 53.1861 77.4441 53.5999 77.4441C54.0138 77.4441 54.4228 77.356 54.7999 77.1856L73.6571 68.8999C74.061 68.714 74.416 68.4364 74.6938 68.0892C74.9715 67.742 75.1644 67.3348 75.2571 66.8999C75.3654 66.4745 75.3701 66.0293 75.2706 65.6017C75.1712 65.1742 74.9706 64.7767 74.6857 64.4427L59.3714 44.957" stroke="#E5C96C" stroke-width="1.5" stroke-linecap="round" stroke-linejoin="round"/>
</svg>
