<svg width="60" height="61" viewBox="0 0 60 61" fill="none" xmlns="http://www.w3.org/2000/svg">
<path d="M6.42878 25.8125H10.7145C11.2828 25.8125 11.8279 26.0383 12.2297 26.4401C12.6316 26.842 12.8574 27.387 12.8574 27.9554V38.6696C12.8574 39.238 12.6316 39.783 12.2297 40.1849C11.8279 40.5867 11.2828 40.8125 10.7145 40.8125H6.42878C5.29214 40.8125 4.20205 40.361 3.39832 39.5572C2.5946 38.7535 2.14307 37.6634 2.14307 36.5268V30.0982C2.14307 28.9616 2.5946 27.8715 3.39832 27.0678C4.20205 26.264 5.29214 25.8125 6.42878 25.8125V25.8125Z" stroke="#18555C" stroke-width="1.5" stroke-linecap="round" stroke-linejoin="round"/>
<path d="M53.5717 40.8125H49.286C48.7177 40.8125 48.1726 40.5867 47.7708 40.1849C47.3689 39.783 47.1431 39.238 47.1431 38.6696V27.9554C47.1431 27.387 47.3689 26.842 47.7708 26.4401C48.1726 26.0383 48.7177 25.8125 49.286 25.8125H53.5717C54.7083 25.8125 55.7984 26.264 56.6022 27.0678C57.4059 27.8715 57.8574 28.9616 57.8574 30.0982V36.5268C57.8574 37.6634 57.4059 38.7535 56.6022 39.5572C55.7984 40.361 54.7083 40.8125 53.5717 40.8125V40.8125Z" stroke="#18555C" stroke-width="1.5" stroke-linecap="round" stroke-linejoin="round"/>
<path d="M40.7144 52.5982C42.9876 52.5982 45.1678 51.6952 46.7753 50.0877C48.3827 48.4802 49.2858 46.3001 49.2858 44.0268V40.8125" stroke="#18555C" stroke-width="1.5" stroke-linecap="round" stroke-linejoin="round"/>
<path d="M35.3575 47.2402C36.7783 47.2402 38.1409 47.8046 39.1456 48.8093C40.1502 49.814 40.7146 51.1766 40.7146 52.5974C40.7146 54.0182 40.1502 55.3808 39.1456 56.3854C38.1409 57.3901 36.7783 57.9545 35.3575 57.9545H28.9289C27.5081 57.9545 26.1455 57.3901 25.1408 56.3854C24.1362 55.3808 23.5718 54.0182 23.5718 52.5974C23.5718 51.1766 24.1362 49.814 25.1408 48.8093C26.1455 47.8046 27.5081 47.2402 28.9289 47.2402H35.3575Z" stroke="#18555C" stroke-width="1.5" stroke-linecap="round" stroke-linejoin="round"/>
<path d="M10.7144 25.8117V21.5259C10.7144 16.4111 12.7462 11.5057 16.363 7.88889C19.9798 4.27212 24.8852 2.24023 30.0001 2.24023C35.115 2.24023 40.0204 4.27212 43.6371 7.88889C47.2539 11.5057 49.2858 16.4111 49.2858 21.5259V25.8117" stroke="#18555C" stroke-width="1.5" stroke-linecap="round" stroke-linejoin="round"/>
<path d="M23.5718 17.2402V23.6688" stroke="#18555C" stroke-width="1.5" stroke-linecap="round" stroke-linejoin="round"/>
<path d="M36.4287 17.2402V23.6688" stroke="#18555C" stroke-width="1.5" stroke-linecap="round" stroke-linejoin="round"/>
<path d="M23.5718 32.2402C23.5718 37.9402 36.4289 37.9402 36.4289 32.2402" stroke="#18555C" stroke-width="1.5" stroke-linecap="round" stroke-linejoin="round"/>
</svg>
