<svg width="80" height="81" viewBox="0 0 80 81" fill="none" xmlns="http://www.w3.org/2000/svg">
<path d="M25.7143 3.18555H8.57146C5.41555 3.18555 2.85718 5.74392 2.85718 8.89983V26.0427C2.85718 29.1986 5.41555 31.757 8.57146 31.757H25.7143C28.8702 31.757 31.4286 29.1986 31.4286 26.0427V8.89983C31.4286 5.74392 28.8702 3.18555 25.7143 3.18555Z" stroke="#E5C96C" stroke-width="1.5" stroke-linecap="round" stroke-linejoin="round"/>
<path d="M71.4286 3.18555H54.2857C51.1298 3.18555 48.5714 5.74392 48.5714 8.89983V26.0427C48.5714 29.1986 51.1298 31.757 54.2857 31.757H71.4286C74.5845 31.757 77.1428 29.1986 77.1428 26.0427V8.89983C77.1428 5.74392 74.5845 3.18555 71.4286 3.18555Z" stroke="#E5C96C" stroke-width="1.5" stroke-linecap="round" stroke-linejoin="round"/>
<path d="M25.7143 48.9004H8.57146C5.41555 48.9004 2.85718 51.4588 2.85718 54.6147V71.7575C2.85718 74.9134 5.41555 77.4718 8.57146 77.4718H25.7143C28.8702 77.4718 31.4286 74.9134 31.4286 71.7575V54.6147C31.4286 51.4588 28.8702 48.9004 25.7143 48.9004Z" stroke="#E5C96C" stroke-width="1.5" stroke-linecap="round" stroke-linejoin="round"/>
<path d="M71.4287 48.9004H54.2858C51.1299 48.9004 48.5715 51.4588 48.5715 54.6147V71.7575C48.5715 74.9134 51.1299 77.4718 54.2858 77.4718H71.4287C74.5846 77.4718 77.143 74.9134 77.143 71.7575V54.6147C77.143 51.4588 74.5846 48.9004 71.4287 48.9004Z" stroke="#E5C96C" stroke-width="1.5" stroke-linecap="round" stroke-linejoin="round"/>
</svg>
