<svg width="80" height="81" viewBox="0 0 80 81" fill="none" xmlns="http://www.w3.org/2000/svg">
<path d="M29.8857 13.1855L32.3428 6.84269C32.7572 5.76877 33.4863 4.84504 34.4345 4.19247C35.3828 3.53991 36.506 3.18895 37.6571 3.18555H42.3428C43.4939 3.18895 44.6171 3.53991 45.5654 4.19247C46.5136 4.84504 47.2427 5.76877 47.6571 6.84269L50.1143 13.1855L58.4571 17.9855L65.2 16.957C66.3227 16.8046 67.4654 16.9894 68.4829 17.488C69.5004 17.9865 70.3467 18.7763 70.9142 19.757L73.2 23.757C73.7857 24.7533 74.0555 25.9037 73.9739 27.0565C73.8923 28.2093 73.463 29.3103 72.7428 30.2141L68.5714 35.5284V45.1284L72.8571 50.4427C73.5773 51.3465 74.0066 52.4475 74.0882 53.6003C74.1698 54.7531 73.9 55.9036 73.3142 56.8998L71.0285 60.8998C70.461 61.8805 69.6147 62.6703 68.5972 63.1688C67.5797 63.6674 66.437 63.8522 65.3142 63.6998L58.5714 62.6713L50.2285 67.4713L47.7714 73.8141C47.357 74.888 46.6279 75.8118 45.6797 76.4643C44.7314 77.1169 43.6082 77.4679 42.4571 77.4713H37.6571C36.506 77.4679 35.3828 77.1169 34.4345 76.4643C33.4863 75.8118 32.7572 74.888 32.3428 73.8141L29.8857 67.4713L21.5428 62.6713L14.8 63.6998C13.6772 63.8522 12.5345 63.6674 11.517 63.1688C10.4995 62.6703 9.65324 61.8805 9.08567 60.8998L6.79996 56.8998C6.21426 55.9036 5.9444 54.7531 6.02602 53.6003C6.10763 52.4475 6.53688 51.3465 7.2571 50.4427L11.4285 45.1284V35.5284L7.14282 30.2141C6.42259 29.3103 5.99335 28.2093 5.91173 27.0565C5.83012 25.9037 6.09997 24.7533 6.68567 23.757L8.97139 19.757C9.53895 18.7763 10.3852 17.9865 11.4027 17.488C12.4202 16.9894 13.5629 16.8046 14.6857 16.957L21.4285 17.9855L29.8857 13.1855ZM28.5714 40.3284C28.5714 42.5888 29.2417 44.7984 30.4975 46.6778C31.7532 48.5572 33.5381 50.022 35.6264 50.887C37.7147 51.752 40.0126 51.9784 42.2296 51.5374C44.4465 51.0964 46.4829 50.0079 48.0812 48.4096C49.6795 46.8113 50.768 44.7749 51.2089 42.558C51.6499 40.3411 51.4236 38.0432 50.5586 35.9549C49.6936 33.8666 48.2288 32.0817 46.3493 30.8259C44.4699 29.5701 42.2603 28.8998 40 28.8998C36.9689 28.8998 34.062 30.1039 31.9187 32.2472C29.7755 34.3905 28.5714 37.2974 28.5714 40.3284V40.3284Z" stroke="#E5C96C" stroke-width="1.5" stroke-linecap="round" stroke-linejoin="round"/>
</svg>
