<svg width="30" height="30" viewBox="0 0 30 30" fill="none" xmlns="http://www.w3.org/2000/svg">
<g clip-path="url(#clip0_297_284)">
<path d="M16.0071 14.7854C15.6892 14.9234 15.3464 14.9946 14.9999 14.9946C14.6534 14.9946 14.3106 14.9234 13.9928 14.7854L1.77849 9.12826C1.58015 9.02822 1.41347 8.87509 1.29701 8.68592C1.18056 8.49675 1.1189 8.27897 1.1189 8.05683C1.1189 7.83469 1.18056 7.61691 1.29701 7.42774C1.41347 7.23857 1.58015 7.08544 1.77849 6.9854L13.9928 1.2854C14.3106 1.14739 14.6534 1.07617 14.9999 1.07617C15.3464 1.07617 15.6892 1.14739 16.0071 1.2854L28.2213 6.94255C28.4197 7.04258 28.5864 7.19572 28.7028 7.38488C28.8193 7.57405 28.8809 7.79183 28.8809 8.01397C28.8809 8.23612 28.8193 8.4539 28.7028 8.64307C28.5864 8.83223 28.4197 8.98536 28.2213 9.0854L16.0071 14.7854Z" stroke="#E5C96C" stroke-width="1.5" stroke-linecap="round" stroke-linejoin="round"/>
<path d="M28.9284 15.75L15.857 21.7714C15.5778 21.8988 15.2746 21.9647 14.9677 21.9647C14.6609 21.9647 14.3576 21.8988 14.0784 21.7714L1.07129 15.75" stroke="#E5C96C" stroke-width="1.5" stroke-linecap="round" stroke-linejoin="round"/>
<path d="M28.9284 22.7148L15.857 28.7363C15.5778 28.8636 15.2746 28.9295 14.9677 28.9295C14.6609 28.9295 14.3576 28.8636 14.0784 28.7363L1.07129 22.7148" stroke="#E5C96C" stroke-width="1.5" stroke-linecap="round" stroke-linejoin="round"/>
</g>
<defs>
<clipPath id="clip0_297_284">
<rect width="30" height="30" fill="white"/>
</clipPath>
</defs>
</svg>
