<svg width="30" height="30" viewBox="0 0 30 30" fill="none" xmlns="http://www.w3.org/2000/svg">
<g clip-path="url(#clip0_565_3421)">
<path d="M9.64174 1.07227H3.21317C2.0297 1.07227 1.07031 2.03166 1.07031 3.21512V9.64369C1.07031 10.8272 2.0297 11.7866 3.21317 11.7866H9.64174C10.8252 11.7866 11.7846 10.8272 11.7846 9.64369V3.21512C11.7846 2.03166 10.8252 1.07227 9.64174 1.07227Z" stroke="#E5C96C" stroke-width="1.5" stroke-linecap="round" stroke-linejoin="round"/>
<path d="M26.7824 1.07227H20.3538C19.1703 1.07227 18.2109 2.03166 18.2109 3.21512V9.64369C18.2109 10.8272 19.1703 11.7866 20.3538 11.7866H26.7824C27.9658 11.7866 28.9252 10.8272 28.9252 9.64369V3.21512C28.9252 2.03166 27.9658 1.07227 26.7824 1.07227Z" stroke="#E5C96C" stroke-width="1.5" stroke-linecap="round" stroke-linejoin="round"/>
<path d="M9.64174 18.2148H3.21317C2.0297 18.2148 1.07031 19.1742 1.07031 20.3577V26.7863C1.07031 27.9697 2.0297 28.9291 3.21317 28.9291H9.64174C10.8252 28.9291 11.7846 27.9697 11.7846 26.7863V20.3577C11.7846 19.1742 10.8252 18.2148 9.64174 18.2148Z" stroke="#E5C96C" stroke-width="1.5" stroke-linecap="round" stroke-linejoin="round"/>
<path d="M26.7824 18.2148H20.3538C19.1703 18.2148 18.2109 19.1742 18.2109 20.3577V26.7863C18.2109 27.9697 19.1703 28.9291 20.3538 28.9291H26.7824C27.9658 28.9291 28.9252 27.9697 28.9252 26.7863V20.3577C28.9252 19.1742 27.9658 18.2148 26.7824 18.2148Z" stroke="#E5C96C" stroke-width="1.5" stroke-linecap="round" stroke-linejoin="round"/>
</g>
<defs>
<clipPath id="clip0_565_3421">
<rect width="30" height="30" fill="white"/>
</clipPath>
</defs>
</svg>
