<svg width="20" height="21" viewBox="0 0 20 21" fill="none" xmlns="http://www.w3.org/2000/svg">
<g clip-path="url(#clip0_297_172)">
<path fill-rule="evenodd" clip-rule="evenodd" d="M9.76799 0.766906C9.79916 0.662145 9.89571 0.589844 10.0052 0.589844C10.1148 0.589844 10.2113 0.662145 10.2425 0.766906C10.2425 0.766906 10.6767 2.22238 11.1421 3.78349C11.8837 6.27062 13.8292 8.21616 16.3163 8.95774C17.8774 9.42314 19.3329 9.85735 19.3329 9.85735C19.4377 9.88852 19.51 9.98507 19.51 10.0946C19.51 10.2041 19.4377 10.3007 19.3329 10.3318C19.3329 10.3318 17.8774 10.7661 16.3163 11.2314C13.8292 11.973 11.8837 13.9186 11.1421 16.4057C10.6767 17.9668 10.2425 19.4223 10.2425 19.4223C10.2113 19.527 10.1148 19.5993 10.0052 19.5993C9.89571 19.5993 9.79916 19.527 9.76799 19.4223C9.76799 19.4223 9.33378 17.9668 8.86838 16.4057C8.1268 13.9186 6.18125 11.973 3.69413 11.2314C2.13303 10.7661 0.677551 10.3318 0.677551 10.3318C0.572783 10.3007 0.500488 10.2041 0.500488 10.0946C0.500488 9.98507 0.572783 9.88852 0.677551 9.85735C0.677551 9.85735 2.13303 9.42314 3.69413 8.95774C6.18125 8.21616 8.1268 6.27062 8.86838 3.78349C9.33378 2.22238 9.76799 0.766906 9.76799 0.766906Z" fill="#E5C96C"/>
</g>
<defs>
<clipPath id="clip0_297_172">
<rect width="20" height="20" fill="white" transform="translate(0.000488281 0.0898438)"/>
</clipPath>
</defs>
</svg>
