<svg width="140" height="140" viewBox="0 0 140 140" fill="none" xmlns="http://www.w3.org/2000/svg">
<circle cx="70" cy="70" r="67.5" fill="#18555C" stroke="#FFFAE9" stroke-width="5"/>
<circle cx="70" cy="69.998" r="60" stroke="#FFFAE9" stroke-dasharray="5 5"/>
<path d="M73.2619 25.7454L71.3953 25.6223L71.8979 18L73.7646 18.1231L73.2619 25.7454ZM72.5603 24.1237L76.5439 24.3865L76.4405 25.9551L72.4568 25.6923L72.5603 24.1237Z" fill="#FFFAE9"/>
<path d="M80.0149 26.8242C78.9689 26.6097 78.2437 26.2189 77.8393 25.652C77.4357 25.0811 77.3256 24.3487 77.5088 23.4548L77.6313 22.8575C77.8122 21.9753 78.1848 21.348 78.7492 20.9756C79.3144 20.5993 80.0439 20.5028 80.9378 20.6861C81.5389 20.8094 82.0172 21.0153 82.373 21.3038C82.7334 21.5892 82.9743 21.9417 83.0957 22.3611C83.2211 22.7814 83.2293 23.257 83.1205 23.7879L83.0808 23.9811C83.0504 24.1294 83.0114 24.2801 82.9638 24.433C82.9209 24.5829 82.8741 24.7217 82.8235 24.8497L81.2076 24.5183C81.2696 24.2951 81.323 24.0844 81.3677 23.8861C81.4132 23.6839 81.4528 23.5008 81.4864 23.3369C81.5352 23.0987 81.5389 22.8921 81.4976 22.7168C81.457 22.5376 81.3675 22.3891 81.229 22.2712C81.0944 22.1541 80.9061 22.0708 80.6641 22.0211C80.305 21.9475 80.0215 21.9911 79.8137 22.1518C79.6105 22.3095 79.4725 22.5659 79.3997 22.9212L79.2916 23.4482L79.2637 23.6438L79.1797 24.0537C79.1493 24.202 79.1439 24.3473 79.1635 24.4897C79.1871 24.6328 79.2489 24.7675 79.3491 24.8938C79.454 25.017 79.6078 25.1299 79.8105 25.2325C80.0178 25.3319 80.2894 25.4161 80.625 25.4849C80.9802 25.5578 81.3285 25.5946 81.67 25.5955C82.0123 25.5925 82.3457 25.5632 82.6702 25.5077L82.2478 26.8244C81.9544 26.9066 81.6181 26.9496 81.2391 26.9532C80.8601 26.9568 80.4521 26.9138 80.0149 26.8242ZM78.3973 23.942L78.6242 22.8354L82.6874 23.6686L82.4605 24.7752L78.3973 23.942Z" fill="#FFFAE9"/>
<path d="M86.616 28.6353L87.1654 27.2704L87.1565 27.1718L87.779 25.4457L87.8489 25.2167C87.9597 24.9093 87.9515 24.6501 87.8244 24.439C87.6972 24.228 87.4218 24.046 86.9983 23.8933C86.6272 23.7594 86.258 23.6792 85.8906 23.6526C85.5233 23.626 85.1699 23.6192 84.8306 23.6324L85.4573 22.3525C85.6632 22.3336 85.8877 22.3277 86.1307 22.3349C86.3789 22.3397 86.6442 22.3676 86.9265 22.4186C87.2088 22.4696 87.5018 22.5499 87.8054 22.6594C88.2889 22.8338 88.6734 23.036 88.9589 23.2661C89.2444 23.4962 89.4475 23.7495 89.568 24.0259C89.6886 24.3024 89.7399 24.6005 89.722 24.9202C89.7055 25.2362 89.635 25.5666 89.5107 25.9115L88.3083 29.2457L86.616 28.6353ZM84.8097 28.1299C84.2587 27.9312 83.8908 27.6417 83.706 27.2616C83.5212 26.8815 83.5214 26.4346 83.7066 25.9211L83.7613 25.7693C83.9573 25.2257 84.2688 24.8848 84.6956 24.7465C85.1276 24.6058 85.7259 24.6204 86.4905 24.7903L88.0457 25.1289L87.7738 26.2L86.3893 25.9166C86.111 25.8543 85.9013 25.8486 85.7602 25.8993C85.6191 25.9501 85.5167 26.0636 85.4532 26.2397L85.439 26.2791C85.3782 26.4478 85.3839 26.6023 85.4561 26.7427C85.5296 26.8794 85.6863 26.991 85.9262 27.0775C86.1361 27.1532 86.3275 27.1863 86.5004 27.1766C86.677 27.1683 86.8323 27.1312 86.9663 27.0651C87.1016 26.9953 87.2166 26.9055 87.3112 26.7956L87.3016 27.58L87.0205 27.4786C86.874 27.6969 86.7019 27.8805 86.5041 28.0294C86.3102 28.1797 86.0748 28.2685 85.7982 28.2958C85.5215 28.3231 85.192 28.2678 84.8097 28.1299Z" fill="#FFFAE9"/>
<path d="M92.4516 27.65L92.5097 26.4315L92.893 26.6271C93.1991 26.2376 93.5371 25.9828 93.9069 25.8629C94.2821 25.7412 94.6951 25.7954 95.1458 26.0254C95.2239 26.0653 95.2921 26.1068 95.3506 26.1501C95.4126 26.1952 95.4701 26.2402 95.5232 26.2852L94.7636 27.9711C94.7 27.9117 94.6203 27.8531 94.5245 27.7953C94.4306 27.734 94.3322 27.677 94.2292 27.6245C93.8814 27.447 93.5551 27.3632 93.2504 27.3732C92.9474 27.3796 92.6811 27.4719 92.4516 27.65ZM89.355 29.7738L92.0254 24.5403L93.5585 25.3227L92.6363 26.9592L92.7905 27.0647L90.9839 30.6052L89.355 29.7738Z" fill="#FFFAE9"/>
<path d="M96.8113 34.1732L98.7686 31.3265C98.8905 31.1491 98.9725 30.9807 99.0145 30.821C99.0589 30.6581 99.0506 30.5048 98.9896 30.3614C98.9287 30.2179 98.8047 30.0819 98.6175 29.9532C98.4632 29.8471 98.3078 29.7813 98.1512 29.7558C97.9969 29.7271 97.846 29.7321 97.6984 29.7709C97.5564 29.8086 97.4251 29.873 97.3044 29.9642L97.5572 29.1007L97.8133 29.2768C98.0171 29.0929 98.2379 28.9546 98.4757 28.8619C98.7168 28.7714 98.9774 28.7475 99.2575 28.7902C99.5399 28.8296 99.8419 28.9599 100.164 29.1812C100.525 29.4296 100.772 29.7034 100.905 30.0026C101.04 30.2985 101.066 30.6217 100.985 30.972C100.907 31.3246 100.726 31.7077 100.441 32.1214L98.3183 35.2095L96.8113 34.1732ZM93.6989 32.0329L97.0276 27.1914L98.5247 28.2209L97.6424 29.3987L97.6033 29.5821L95.2059 33.0692L93.6989 32.0329Z" fill="#FFFAE9"/>
<path d="M101.2 37.5936L107.035 32.6581L108.779 34.5943L106.239 38.5799L106.291 38.6376L110.519 36.526L112.263 38.4621L106.748 43.7529L105.536 42.4073L107.361 40.691L109.589 38.6106L109.529 38.544L105.194 40.6881L104.082 39.4536L106.665 35.3644L106.601 35.2934L104.3 37.3023L102.412 38.9391L101.2 37.5936Z" fill="#FFFAE9"/>
<path d="M108.585 47.1579C108.087 46.3507 107.91 45.6169 108.055 44.9562C108.206 44.2969 108.645 43.7423 109.374 43.2925L110.031 42.8877C110.77 42.4316 111.47 42.2849 112.133 42.4476C112.798 42.6082 113.379 43.0904 113.875 43.8942C114.37 44.6979 114.54 45.4316 114.382 46.0951C114.231 46.7599 113.785 47.3203 113.046 47.7764L112.39 48.1812C111.661 48.631 110.968 48.7753 110.311 48.6139C109.658 48.4504 109.082 47.965 108.585 47.1579ZM109.81 46.4016C109.988 46.6899 110.21 46.8553 110.475 46.8978C110.745 46.9416 111.041 46.8641 111.364 46.6654L112.152 46.179C112.491 45.9697 112.702 45.7344 112.784 45.473C112.868 45.215 112.821 44.9419 112.644 44.6536C112.466 44.3653 112.242 44.1993 111.971 44.1555C111.703 44.115 111.399 44.1994 111.06 44.4086L110.272 44.8951C109.949 45.0938 109.746 45.3222 109.662 45.5802C109.583 45.8395 109.633 46.1133 109.81 46.4016Z" fill="#FFFAE9"/>
<path d="M114.435 50.8237L115.24 49.9076L115.418 50.2997C115.9 50.1862 116.323 50.1979 116.687 50.3349C117.056 50.4739 117.345 50.7739 117.554 51.2349C117.59 51.3148 117.617 51.3898 117.636 51.4601C117.656 51.534 117.673 51.6051 117.687 51.6734L116.042 52.5171C116.029 52.431 116.003 52.3355 115.964 52.2306C115.929 52.124 115.888 52.0181 115.84 51.9129C115.679 51.5571 115.476 51.2881 115.232 51.1057C114.991 50.9217 114.725 50.8277 114.435 50.8237ZM110.69 50.5517L116.041 48.1274L116.752 49.6954L115.01 50.3991L115.065 50.5777L111.444 52.2178L110.69 50.5517Z" fill="#FFFAE9"/>
<path d="M113.318 57.6986C113.002 56.6786 112.995 55.8548 113.296 55.2272C113.602 54.5984 114.191 54.1488 115.062 53.8785L115.644 53.6979C116.504 53.4312 117.233 53.4553 117.832 53.7704C118.434 54.0843 118.87 54.677 119.14 55.5486C119.322 56.1347 119.372 56.6532 119.291 57.1039C119.215 57.5573 119.022 57.9383 118.713 58.2469C118.405 58.5593 117.993 58.7958 117.475 58.9563L117.287 59.0147C117.142 59.0596 116.991 59.098 116.834 59.13C116.682 59.1646 116.538 59.1906 116.402 59.2079L115.913 57.6322C116.139 57.579 116.349 57.5241 116.544 57.4677C116.743 57.4102 116.923 57.3566 117.083 57.307C117.315 57.235 117.498 57.1387 117.631 57.018C117.769 56.8961 117.856 56.746 117.892 56.5678C117.93 56.3934 117.912 56.1882 117.839 55.9523C117.73 55.6021 117.555 55.3747 117.314 55.2701C117.078 55.1681 116.787 55.1708 116.441 55.2782L115.927 55.4375L115.742 55.5074L115.343 55.6313C115.198 55.6762 115.068 55.7415 114.953 55.8273C114.839 55.9169 114.751 56.036 114.688 56.1847C114.631 56.336 114.606 56.5252 114.614 56.7522C114.627 56.9819 114.684 57.2604 114.786 57.5877C114.893 57.934 115.029 58.257 115.192 58.5566C115.36 58.8551 115.546 59.1332 115.751 59.3908L114.394 59.6553C114.181 59.4378 113.981 59.1639 113.795 58.8335C113.609 58.5032 113.45 58.1249 113.318 57.6986ZM115.063 54.8919L116.142 54.5573L117.371 58.5193L116.292 58.8539L115.063 54.8919Z" fill="#FFFAE9"/>
<path d="M118.446 63.967L119.093 62.7393L120.143 63.5643L120.178 63.5481L120.215 62.3035L121.596 62.4746L121.227 63.7651L121.254 63.786L122.502 63.4553L122.681 64.9449L121.389 64.9135L121.368 64.9401L122.033 66.1124L120.732 66.606L120.4 65.3997L120.364 65.398L119.539 66.4484L118.62 65.415L119.674 64.5659L119.67 64.5303L118.446 63.967Z" fill="#FFFAE9"/>
<path d="M115.269 72.7407L115.371 70.8726L122.998 71.2891L122.896 73.1571L115.269 72.7407ZM116.883 72.0207L116.665 76.0075L115.096 75.9218L115.313 71.935L116.883 72.0207Z" fill="#FFFAE9"/>
<path d="M114.271 79.5155C114.473 78.467 114.856 77.7373 115.418 77.3266C115.985 76.9166 116.716 76.7982 117.611 76.9715L118.21 77.0872C119.094 77.2582 119.725 77.6238 120.104 78.1841C120.487 78.7451 120.591 79.4736 120.418 80.3695C120.302 80.972 120.101 81.4527 119.817 81.8117C119.535 82.1753 119.186 82.4202 118.767 82.5464C118.349 82.6764 117.873 82.69 117.341 82.5871L117.148 82.5496C116.999 82.5209 116.848 82.4836 116.694 82.4377C116.544 82.3964 116.405 82.3512 116.276 82.302L116.59 80.6823C116.813 80.7418 117.025 80.7928 117.223 80.8353C117.426 80.8786 117.61 80.9161 117.774 80.9479C118.013 80.994 118.219 80.9954 118.394 80.9521C118.573 80.9096 118.72 80.8184 118.836 80.6785C118.952 80.5426 119.033 80.3533 119.08 80.1108C119.15 79.7508 119.103 79.4678 118.94 79.2618C118.78 79.0604 118.522 78.9253 118.166 78.8564L117.638 78.7543L117.442 78.7286L117.031 78.6491C116.883 78.6204 116.737 78.6166 116.595 78.6379C116.452 78.663 116.318 78.7264 116.193 78.828C116.071 78.9343 115.96 79.0893 115.86 79.2931C115.763 79.5016 115.682 79.7741 115.617 80.1106C115.548 80.4666 115.515 80.8154 115.518 81.1569C115.525 81.4991 115.558 81.8322 115.617 82.1562L114.295 81.7484C114.21 81.4559 114.163 81.1202 114.155 80.7412C114.148 80.3622 114.186 79.9536 114.271 79.5155ZM117.134 77.8654L118.243 78.0799L117.456 82.1526L116.347 81.9382L117.134 77.8654Z" fill="#FFFAE9"/>
<path d="M112.53 86.1356L113.901 86.6695L113.999 86.6594L115.732 87.2623L115.962 87.3296C116.27 87.4369 116.529 87.4258 116.739 87.2962C116.949 87.1666 117.127 86.8892 117.275 86.4639C117.405 86.0913 117.481 85.7212 117.503 85.3535C117.526 84.9858 117.528 84.6323 117.511 84.2931L118.798 84.9053C118.82 85.111 118.828 85.3355 118.823 85.5786C118.822 85.8269 118.797 86.0924 118.749 86.3754C118.701 86.6583 118.624 86.9522 118.518 87.257C118.349 87.7425 118.151 88.1294 117.925 88.4175C117.698 88.7057 117.447 88.9116 117.172 89.0353C116.897 89.159 116.599 89.2137 116.279 89.1995C115.963 89.1865 115.632 89.1198 115.286 88.9994L111.939 87.8348L112.53 86.1356ZM113.015 84.3234C113.207 83.7701 113.492 83.3989 113.87 83.2098C114.248 83.0206 114.695 83.0158 115.21 83.1951L115.363 83.2481C115.908 83.438 116.253 83.7456 116.396 84.1708C116.542 84.6012 116.534 85.1997 116.373 85.9663L116.052 87.5255L114.978 87.2657L115.245 85.8779C115.304 85.5989 115.308 85.3892 115.255 85.2486C115.203 85.108 115.089 85.007 114.912 84.9454L114.872 84.9317C114.703 84.8728 114.548 84.8802 114.409 84.954C114.273 85.0291 114.163 85.1871 114.079 85.428C114.006 85.6387 113.975 85.8305 113.987 86.0033C113.997 86.1799 114.036 86.3348 114.104 86.468C114.175 86.6025 114.266 86.7165 114.377 86.8099L113.593 86.8091L113.691 86.5269C113.471 86.3828 113.285 86.2128 113.134 86.0168C112.982 85.8245 112.89 85.5902 112.86 85.3138C112.829 85.0374 112.881 84.7073 113.015 84.3234Z" fill="#FFFAE9"/>
<path d="M113.583 91.9523L114.802 91.9966L114.611 92.3821C115.004 92.6838 115.263 93.0189 115.387 93.3874C115.513 93.7612 115.463 94.1748 115.238 94.6282C115.199 94.7067 115.159 94.7755 115.116 94.8344C115.072 94.8969 115.027 94.955 114.983 95.0086L113.289 94.2682C113.347 94.2038 113.405 94.1235 113.462 94.0271C113.522 93.9324 113.578 93.8333 113.629 93.7298C113.803 93.38 113.883 93.0527 113.869 92.748C113.859 92.4451 113.764 92.1799 113.583 91.9523ZM111.425 88.8798L116.688 91.4907L115.923 93.0328L114.276 92.1292L114.173 92.2846L110.612 90.5183L111.425 88.8798Z" fill="#FFFAE9"/>
<path d="M107.113 96.3877L109.982 98.3128C110.16 98.4327 110.33 98.5128 110.49 98.5531C110.653 98.5956 110.806 98.5855 110.949 98.523C111.092 98.4604 111.226 98.3348 111.353 98.1462C111.457 97.9907 111.521 97.8345 111.545 97.6776C111.572 97.523 111.565 97.3721 111.525 97.225C111.486 97.0834 111.42 96.9528 111.327 96.8332L112.193 97.0762L112.02 97.3343C112.206 97.536 112.347 97.7552 112.443 97.992C112.536 98.2321 112.563 98.4925 112.523 98.7731C112.487 99.0559 112.36 99.3595 112.142 99.6837C111.898 100.048 111.627 100.298 111.329 100.434C111.035 100.572 110.712 100.603 110.361 100.525C110.008 100.451 109.623 100.275 109.206 99.9947L106.094 97.9064L107.113 96.3877ZM109.218 93.2509L114.096 96.525L113.084 98.0338L111.896 97.1648L111.713 97.1278L108.199 94.7697L109.218 93.2509Z" fill="#FFFAE9"/>
<path d="M103.742 100.816L108.743 106.596L106.826 108.362L102.813 105.867L102.756 105.92L104.915 110.124L102.999 111.89L97.6466 106.434L98.9783 105.207L100.715 107.012L102.82 109.218L102.886 109.157L100.693 104.846L101.915 103.72L106.033 106.257L106.103 106.192L104.069 103.913L102.411 102.044L103.742 100.816Z" fill="#FFFAE9"/>
<path d="M94.2604 108.315C95.0618 107.808 95.7935 107.623 96.4557 107.761C97.1166 107.904 97.676 108.337 98.134 109.061L98.5461 109.713C99.0105 110.447 99.1651 111.146 99.0099 111.81C98.8568 112.477 98.3813 113.063 97.5833 113.568C96.7852 114.073 96.0537 114.251 95.3885 114.101C94.7221 113.957 94.1567 113.518 93.6923 112.784L93.2802 112.132C92.8222 111.408 92.6702 110.717 92.8242 110.058C92.9802 109.403 93.459 108.822 94.2604 108.315ZM95.0304 109.532C94.7442 109.713 94.5813 109.937 94.5418 110.202C94.501 110.473 94.5818 110.768 94.7842 111.088L95.2794 111.871C95.4924 112.208 95.7301 112.416 95.9924 112.495C96.2513 112.577 96.5238 112.527 96.8101 112.346C97.0963 112.165 97.2598 111.939 97.3005 111.668C97.3379 111.399 97.2501 111.096 97.0371 110.759L96.5419 109.976C96.3395 109.656 96.1089 109.456 95.8499 109.374C95.5898 109.299 95.3166 109.351 95.0304 109.532Z" fill="#FFFAE9"/>
<path d="M90.6642 114.203L91.5893 114.998L91.1994 115.18C91.3184 115.661 91.3115 116.084 91.1787 116.449C91.0439 116.82 90.7473 117.113 90.2888 117.327C90.2094 117.364 90.1346 117.392 90.0646 117.412C89.991 117.433 89.9201 117.45 89.852 117.465L88.9895 115.829C89.0754 115.815 89.1706 115.788 89.2751 115.748C89.3812 115.712 89.4867 115.67 89.5914 115.621C89.9452 115.455 90.2118 115.25 90.3914 115.003C90.5726 114.76 90.6635 114.493 90.6642 114.203ZM90.8933 110.455L93.3785 115.779L91.8188 116.507L91.0954 114.773L90.9174 114.83L89.2361 111.228L90.8933 110.455Z" fill="#FFFAE9"/>
<path d="M83.7785 113.167C84.7947 112.839 85.6183 112.822 86.2492 113.117C86.8814 113.415 87.3376 113.998 87.6178 114.867L87.805 115.447C88.0815 116.304 88.0657 117.034 87.7575 117.635C87.4505 118.241 86.8629 118.684 85.9946 118.964C85.4106 119.153 84.8928 119.209 84.4412 119.133C83.987 119.062 83.6039 118.873 83.2918 118.568C82.976 118.264 82.7348 117.854 82.5684 117.338L82.5079 117.15C82.4614 117.006 82.4212 116.856 82.3875 116.699C82.3511 116.548 82.3235 116.404 82.3047 116.267L83.8745 115.761C83.9303 115.986 83.9875 116.195 84.0461 116.39C84.1059 116.588 84.1615 116.767 84.2129 116.927C84.2876 117.158 84.386 117.34 84.5082 117.472C84.6316 117.608 84.7827 117.693 84.9613 117.728C85.1361 117.763 85.341 117.743 85.5761 117.667C85.9249 117.555 86.1503 117.377 86.2522 117.135C86.3515 116.898 86.3455 116.607 86.2341 116.262L86.0689 115.75L85.997 115.566L85.8685 115.168C85.822 115.023 85.7552 114.894 85.6681 114.78C85.5772 114.667 85.4571 114.58 85.3077 114.519C85.1558 114.464 84.9664 114.441 84.7395 114.452C84.51 114.467 84.2322 114.527 83.9061 114.633C83.5611 114.744 83.2397 114.883 82.942 115.051C82.6455 115.222 82.3696 115.411 82.1143 115.619L81.8344 114.265C82.0494 114.049 82.321 113.846 82.6492 113.657C82.9773 113.467 83.3538 113.304 83.7785 113.167ZM86.6046 114.88L86.9515 115.955L83.0042 117.229L82.6573 116.154L86.6046 114.88Z" fill="#FFFAE9"/>
<path d="M77.5681 118.361L78.8029 118.994L77.9899 120.054L78.0065 120.088L79.2513 120.111L79.0958 121.494L77.8013 121.14L77.7808 121.167L78.1255 122.411L76.6382 122.607L76.6549 121.315L76.6281 121.294L75.4635 121.972L74.9554 120.677L76.1577 120.331L76.159 120.295L75.0995 119.482L76.1224 118.552L76.9832 119.596L77.0187 119.591L77.5681 118.361Z" fill="#FFFAE9"/>
<path d="M68.7654 115.287L70.6343 115.368L70.3042 123L68.4353 122.919L68.7654 115.287ZM69.5035 116.893L65.5149 116.72L65.5829 115.15L69.5715 115.322L69.5035 116.893Z" fill="#FFFAE9"/>
<path d="M61.969 114.359C63.0196 114.55 63.7534 114.924 64.1704 115.482C64.5867 116.044 64.7132 116.774 64.55 117.671L64.441 118.271C64.28 119.157 63.9215 119.793 63.3656 120.178C62.809 120.567 62.0818 120.679 61.1841 120.516C60.5804 120.407 60.0975 120.211 59.7354 119.931C59.3687 119.654 59.1199 119.307 58.9891 118.89C58.8544 118.473 58.8355 117.997 58.9324 117.464L58.9676 117.27C58.9947 117.121 59.0303 116.97 59.0745 116.816C59.1141 116.665 59.1577 116.525 59.2055 116.396L60.8284 116.691C60.7714 116.916 60.7228 117.128 60.6825 117.327C60.6415 117.53 60.6061 117.714 60.5762 117.878C60.5327 118.118 60.5336 118.324 60.5789 118.499C60.6234 118.677 60.7163 118.823 60.8574 118.938C60.9946 119.052 61.1847 119.131 61.4278 119.175C61.7884 119.241 62.0708 119.191 62.275 119.026C62.4746 118.864 62.6068 118.604 62.6716 118.247L62.7678 117.718L62.7913 117.522L62.8662 117.11C62.8932 116.961 62.8954 116.816 62.8726 116.674C62.8458 116.531 62.781 116.398 62.678 116.274C62.5703 116.153 62.414 116.044 62.2091 115.946C61.9996 115.851 61.7262 115.773 61.3891 115.712C61.0324 115.647 60.6833 115.618 60.3419 115.625C59.9998 115.635 59.6671 115.672 59.3439 115.735L59.7367 114.409C60.0282 114.32 60.3634 114.27 60.7422 114.258C61.121 114.245 61.53 114.279 61.969 114.359ZM63.6509 117.204L63.4489 118.316L59.368 117.574L59.57 116.462L63.6509 117.204Z" fill="#FFFAE9"/>
<path d="M55.336 112.701L54.8178 114.078L54.829 114.176L54.2459 115.916L54.1813 116.147C54.0775 116.457 54.0915 116.716 54.2235 116.924C54.3555 117.132 54.6349 117.307 55.0618 117.451C55.4358 117.576 55.8067 117.648 56.1746 117.666C56.5425 117.684 56.8959 117.683 57.2349 117.662L56.6374 118.956C56.432 118.979 56.2077 118.99 55.9645 118.989C55.7163 118.99 55.4505 118.968 55.1671 118.923C54.8837 118.879 54.589 118.805 54.2829 118.702C53.7956 118.539 53.4066 118.346 53.1159 118.122C52.8252 117.899 52.6165 117.65 52.4897 117.376C52.3629 117.103 52.3048 116.806 52.3154 116.486C52.3247 116.17 52.3876 115.838 52.5041 115.49L53.6304 112.129L55.336 112.701ZM57.1534 113.165C57.7087 113.351 58.0831 113.632 58.2765 114.008C58.47 114.384 58.4799 114.831 58.3065 115.348L58.2552 115.501C58.0716 116.049 57.768 116.397 57.3444 116.545C56.9158 116.696 56.3173 116.695 55.549 116.542L53.9865 116.239L54.2339 115.162L55.6245 115.414C55.9042 115.47 56.1139 115.471 56.2539 115.417C56.3938 115.363 56.4936 115.247 56.5531 115.069L56.5664 115.03C56.6233 114.86 56.6141 114.705 56.5388 114.567C56.4621 114.432 56.3029 114.324 56.0611 114.243C55.8496 114.172 55.6575 114.143 55.4848 114.157C55.3084 114.169 55.154 114.21 55.0216 114.279C54.8879 114.352 54.775 114.444 54.6829 114.556L54.6747 113.772L54.958 113.867C55.0995 113.645 55.2674 113.458 55.4617 113.304C55.6522 113.149 55.8854 113.055 56.1614 113.022C56.4374 112.988 56.7681 113.036 57.1534 113.165Z" fill="#FFFAE9"/>
<path d="M49.5323 113.821L49.502 115.04L49.1144 114.853C48.8172 115.25 48.4851 115.512 48.1181 115.64C47.7458 115.771 47.3317 115.726 46.8758 115.506C46.7969 115.468 46.7277 115.428 46.6683 115.386C46.6052 115.342 46.5467 115.299 46.4926 115.255L47.2135 113.552C47.2785 113.61 47.3596 113.667 47.4566 113.722C47.5519 113.782 47.6516 113.836 47.7557 113.887C48.1075 114.056 48.4356 114.132 48.7401 114.115C49.0428 114.102 49.3069 114.004 49.5323 113.821ZM52.5797 111.627L50.0293 116.92L48.4787 116.172L49.3634 114.515L49.2068 114.413L50.9322 110.833L52.5797 111.627Z" fill="#FFFAE9"/>
<path d="M45.024 107.394L43.1316 110.284C43.0137 110.464 42.9355 110.635 42.8971 110.795C42.8564 110.959 42.8682 111.112 42.9323 111.254C42.9965 111.396 43.1236 111.53 43.3136 111.654C43.4702 111.757 43.6271 111.819 43.7842 111.841C43.9391 111.866 44.0899 111.858 44.2365 111.815C44.3777 111.775 44.5075 111.707 44.6261 111.613L44.3929 112.482L44.1329 112.312C43.9333 112.5 43.7157 112.644 43.48 112.742C43.241 112.838 42.981 112.867 42.7 112.831C42.4168 112.798 42.1119 112.675 41.7852 112.461C41.4186 112.221 41.1655 111.952 41.026 111.656C40.8844 111.363 40.8502 111.041 40.9236 110.689C40.9936 110.335 41.1661 109.947 41.4412 109.527L43.4941 106.392L45.024 107.394ZM48.184 109.464L44.9654 114.379L43.4455 113.384L44.3009 112.186L44.3359 112.002L46.654 108.462L48.184 109.464Z" fill="#FFFAE9"/>
<path d="M40.5576 104.077L34.8355 109.142L33.0482 107.246L35.4972 103.204L35.4439 103.148L31.265 105.354L29.4777 103.458L34.8718 98.044L36.1139 99.3619L34.3285 101.119L32.1474 103.249L32.2089 103.314L36.4946 101.073L37.6342 102.282L35.144 106.428L35.2096 106.498L37.4648 104.438L39.3155 102.759L40.5576 104.077Z" fill="#FFFAE9"/>
<path d="M32.9526 94.6762C33.4686 95.4719 33.6616 96.2016 33.5316 96.8653C33.3961 97.5279 32.969 98.0922 32.2502 98.5584L31.6034 98.9779C30.8746 99.4506 30.1774 99.6131 29.5118 99.4654C28.8428 99.3198 28.2514 98.8509 27.7376 98.0585C27.2238 97.2661 27.038 96.5365 27.1802 95.8696C27.3168 95.2016 27.7496 94.6312 28.4783 94.1585L29.1252 93.739C29.8439 93.2729 30.5333 93.113 31.1935 93.2596C31.8503 93.4083 32.4366 93.8805 32.9526 94.6762ZM31.7441 95.46C31.5599 95.1758 31.3348 95.0154 31.0689 94.9789C30.7975 94.9412 30.503 95.0253 30.1854 95.2313L29.4082 95.7354C29.0739 95.9522 28.8686 96.1922 28.7924 96.4554C28.7139 96.7153 28.7668 96.9873 28.9511 97.2715C29.1354 97.5556 29.3632 97.7166 29.6346 97.7543C29.9038 97.7887 30.2056 97.6974 30.5399 97.4806L31.3171 96.9765C31.6347 96.7705 31.8327 96.5376 31.9111 96.2778C31.9841 96.0168 31.9284 95.7442 31.7441 95.46Z" fill="#FFFAE9"/>
<path d="M27.0276 91.1539L26.2434 92.0881L26.0569 91.7003C25.5774 91.8248 25.1542 91.8227 24.7872 91.694C24.415 91.5635 24.1193 91.2702 23.9 90.8142C23.862 90.7352 23.8329 90.6607 23.8126 90.5909C23.7905 90.5175 23.772 90.4468 23.757 90.3789L25.3825 89.4977C25.3972 89.5835 25.4252 89.6783 25.4663 89.7824C25.5039 89.8881 25.5477 89.993 25.5978 90.0972C25.767 90.4491 25.9759 90.7134 26.2244 90.8902C26.4694 91.0686 26.7371 91.1565 27.0276 91.1539ZM30.7778 91.3401L25.4832 93.8863L24.7373 92.3349L26.4622 91.5916L26.4035 91.4142L29.9853 89.6918L30.7778 91.3401Z" fill="#FFFAE9"/>
<path d="M27.982 84.2493C28.3215 85.2618 28.3476 86.0853 28.0602 86.7196C27.769 87.3552 27.1909 87.8181 26.3258 88.1082L25.7478 88.302C24.8941 88.5883 24.1645 88.5808 23.5592 88.2795C22.9501 87.9794 22.5005 87.3968 22.2104 86.5316C22.0154 85.9498 21.9533 85.4326 22.0243 84.9801C22.0903 84.5251 22.2742 84.1398 22.576 83.8242C22.8766 83.5049 23.2837 83.2591 23.7975 83.0868L23.9845 83.0241C24.128 82.9759 24.2779 82.9341 24.4341 82.8985C24.5852 82.8604 24.7288 82.8312 24.8648 82.8108L25.3892 84.3749C25.1651 84.4333 24.956 84.4929 24.7621 84.5537C24.5644 84.6158 24.3862 84.6735 24.2276 84.7267C23.9971 84.8039 23.8165 84.9044 23.6857 85.0282C23.5511 85.1532 23.4676 85.3052 23.4351 85.4841C23.4014 85.6594 23.4238 85.8641 23.5024 86.0983C23.6189 86.4459 23.7989 86.6693 24.0422 86.7684C24.2805 86.865 24.5716 86.8556 24.9153 86.7403L25.4253 86.5693L25.6085 86.4953L26.0051 86.3623C26.1487 86.3141 26.2771 86.2458 26.3903 86.1574C26.5023 86.0652 26.5878 85.9441 26.6467 85.7941C26.7006 85.6415 26.7211 85.4518 26.7081 85.225C26.69 84.9957 26.6265 84.7186 26.5176 84.3937C26.4023 84.0499 26.2594 83.7301 26.0887 83.4342C25.9143 83.1397 25.7217 82.866 25.5108 82.6131L26.8616 82.3177C27.08 82.5302 27.2858 82.7995 27.4792 83.1256C27.6725 83.4516 27.8402 83.8262 27.982 84.2493ZM26.3013 87.0951L25.2303 87.4543L23.9117 83.5213L24.9826 83.1622L26.3013 87.0951Z" fill="#FFFAE9"/>
<path d="M22.7186 78.0963L22.0994 79.3382L21.0308 78.5372L20.997 78.5541L20.9881 79.7992L19.6036 79.6593L19.943 78.3608L19.916 78.3405L18.6753 78.6993L18.4627 77.2141L19.7551 77.2163L19.7753 77.1892L19.0845 76.0322L20.3741 75.5095L20.7328 76.708L20.7692 76.7088L21.5701 75.6402L22.512 76.6526L21.4777 77.5252L21.4828 77.5607L22.7186 78.0963Z" fill="#FFFAE9"/>
<path d="M25.6938 69.2664L25.6341 71.1363L18 70.8926L18.0597 69.0227L25.6938 69.2664ZM24.097 70.0227L24.2244 66.032L25.7954 66.0822L25.6681 70.0729L24.097 70.0227Z" fill="#FFFAE9"/>
<path d="M26.5454 62.4464C26.3662 63.4992 26.0002 64.2372 25.4472 64.6605C24.8903 65.0831 24.1621 65.2178 23.2626 65.0647L22.6616 64.9625C21.7739 64.8114 21.1345 64.46 20.7434 63.9084C20.3483 63.3561 20.2273 62.6302 20.3804 61.7306C20.4834 61.1256 20.673 60.6405 20.9494 60.2752C21.2225 59.9054 21.5666 59.6527 21.9817 59.5172C22.3975 59.3778 22.8724 59.3536 23.4066 59.4445L23.6011 59.4776C23.7503 59.503 23.9022 59.5369 24.0566 59.5794C24.2078 59.6172 24.3481 59.6593 24.4777 59.7056L24.2009 61.3319C23.9758 61.2774 23.7634 61.2312 23.5637 61.1931C23.3602 61.1545 23.1759 61.1211 23.0109 61.093C22.7713 61.0522 22.5646 61.0554 22.3909 61.1027C22.2132 61.1492 22.0678 61.2437 21.9547 61.3861C21.8422 61.5246 21.7652 61.7157 21.7238 61.9592C21.6623 62.3206 21.7153 62.6025 21.883 62.8048C22.0474 63.0026 22.3083 63.1319 22.6657 63.1927L23.196 63.283L23.3924 63.3043L23.8049 63.3745C23.9541 63.3999 24.0995 63.4004 24.2411 63.376C24.3833 63.3476 24.5159 63.2813 24.6387 63.1769C24.7583 63.0679 24.866 62.9104 24.9616 62.7043C25.0541 62.4937 25.129 62.2195 25.1865 61.8816C25.2473 61.5242 25.2724 61.1748 25.2618 60.8334C25.2473 60.4914 25.2068 60.1591 25.1405 59.8366L26.4705 60.2146C26.5625 60.5051 26.6167 60.8397 26.6331 61.2184C26.6495 61.5971 26.6203 62.0064 26.5454 62.4464ZM23.7196 64.1603L22.6061 63.9708L23.302 59.8814L24.4155 60.0709L23.7196 64.1603Z" fill="#FFFAE9"/>
<path d="M28.1287 55.8015L26.746 55.299L26.6478 55.3113L24.9016 54.748L24.6704 54.686C24.3594 54.5857 24.1007 54.6027 23.8941 54.7371C23.6875 54.8714 23.5151 55.1529 23.3769 55.5814C23.2558 55.9568 23.1883 56.3286 23.1742 56.6967C23.1602 57.0648 23.1655 57.4183 23.1902 57.757L21.8899 57.1743C21.8639 56.9691 21.8504 56.7449 21.8493 56.5017C21.8456 56.2535 21.8644 55.9874 21.9057 55.7035C21.9471 55.4196 22.0173 55.124 22.1163 54.8168C22.2741 54.3276 22.4631 53.9364 22.6832 53.6431C22.9034 53.3499 23.1495 53.1383 23.4217 53.0083C23.6939 52.8784 23.99 52.8169 24.3101 52.8239C24.6264 52.8296 24.959 52.8887 25.3079 53.0013L28.6809 54.0892L28.1287 55.8015ZM27.6853 57.6243C27.5055 58.1818 27.2289 58.5594 26.8553 58.7571C26.4818 58.9548 26.0352 58.9699 25.5157 58.8023L25.3621 58.7527C24.8123 58.5754 24.461 58.2758 24.3082 57.8538C24.1528 57.4269 24.147 56.8284 24.2907 56.0583L24.5759 54.4922L25.6555 54.7274L25.4196 56.121C25.3669 56.4012 25.3683 56.611 25.4239 56.7504C25.4794 56.8897 25.5963 56.9881 25.7745 57.0456L25.8143 57.0585C25.985 57.1135 26.1392 57.1025 26.2771 57.0256C26.4111 56.9474 26.5173 56.787 26.5956 56.5442C26.6641 56.3319 26.6905 56.1394 26.675 55.9669C26.6607 55.7907 26.6182 55.6367 26.5476 55.5051C26.4732 55.3722 26.3795 55.2603 26.2665 55.1695L27.0507 55.1524L26.959 55.4368C27.1821 55.5757 27.3715 55.7415 27.5271 55.934C27.6839 56.1228 27.7807 56.355 27.8174 56.6306C27.8541 56.9062 27.8101 57.2374 27.6853 57.6243Z" fill="#FFFAE9"/>
<path d="M26.9423 50.014L25.7227 49.9976L25.905 49.6078C25.5053 49.3151 25.2391 48.986 25.1066 48.6205C24.9722 48.2496 25.0122 47.835 25.2267 47.3766C25.2638 47.2972 25.303 47.2276 25.3442 47.1677C25.3871 47.1042 25.4301 47.0451 25.4733 46.9905L27.184 47.692C27.1269 47.7577 27.0711 47.8393 27.0166 47.937C26.9585 48.033 26.9049 48.1334 26.856 48.238C26.6905 48.5917 26.6179 48.9207 26.6383 49.225C26.6551 49.5277 26.7564 49.7906 26.9423 50.014ZM29.1706 53.0364L23.8493 50.5464L24.5788 48.9872L26.2456 49.853L26.3458 49.6953L29.9456 51.3798L29.1706 53.0364Z" fill="#FFFAE9"/>
<path d="M33.316 45.4269L30.4049 43.5669C30.2236 43.4511 30.0525 43.3748 29.8915 43.3382C29.7272 43.2994 29.5744 43.3128 29.4331 43.3786C29.2918 43.4444 29.16 43.573 29.0377 43.7644C28.9369 43.9222 28.8764 44.0798 28.8563 44.2371C28.8328 44.3924 28.8429 44.543 28.8866 44.6892C28.9292 44.8299 28.998 44.959 29.0931 45.0765L28.2217 44.8531L28.389 44.5911C28.1984 44.3937 28.0527 44.1777 27.9519 43.9431C27.8534 43.7051 27.8207 43.4454 27.8539 43.164C27.8837 42.8805 28.0037 42.5741 28.2139 42.245C28.4499 41.8757 28.7151 41.6196 29.0097 41.4767C29.3008 41.3318 29.6228 41.294 29.9757 41.3634C30.3307 41.4294 30.7197 41.5976 31.1427 41.8679L34.3006 43.8855L33.316 45.4269ZM31.2825 48.6103L26.3317 45.4471L27.3098 43.9158L28.5166 44.7578L28.7013 44.7907L32.2671 47.069L31.2825 48.6103Z" fill="#FFFAE9"/>
<path d="M36.5864 40.9252L31.4573 35.2598L33.3332 33.4511L37.4019 35.8547L37.4578 35.8008L35.2049 31.6465L37.0808 29.8377L42.5541 35.1712L41.2504 36.4282L39.4737 34.6625L37.3194 32.5053L37.2549 32.5675L39.544 36.8281L38.3478 37.9814L34.1742 35.5378L34.1054 35.6042L36.1906 37.8363L37.8901 39.6682L36.5864 40.9252Z" fill="#FFFAE9"/>
<path d="M45.8952 33.2166C45.1054 33.7415 44.378 33.9428 43.713 33.8202C43.049 33.6922 42.4799 33.2714 42.0058 32.5579L41.579 31.9158C41.0982 31.1923 40.9279 30.4969 41.0681 29.8296C41.2061 29.1589 41.6683 28.5622 42.4547 28.0395C43.2411 27.5167 43.9685 27.3227 44.6369 27.4573C45.3064 27.5865 45.8815 28.0128 46.3623 28.7363L46.7891 29.3784C47.2633 30.0919 47.4308 30.7796 47.2917 31.4414C47.1505 32.0999 46.685 32.6916 45.8952 33.2166ZM45.0979 32.0169C45.38 31.8294 45.5378 31.6025 45.5713 31.3362C45.6059 31.0644 45.5185 30.7708 45.309 30.4555L44.7962 29.684C44.5757 29.3521 44.3334 29.1495 44.0694 29.0762C43.8087 29.0007 43.5373 29.0566 43.2553 29.2441C42.9732 29.4316 42.8149 29.6613 42.7802 29.9331C42.7489 30.2027 42.8435 30.5035 43.0641 30.8353L43.5768 31.6069C43.7864 31.9222 44.0215 32.1176 44.2821 32.1931C44.5439 32.2631 44.8159 32.2044 45.0979 32.0169Z" fill="#FFFAE9"/>
<path d="M49.3491 27.2514L48.4061 26.4778L48.7917 26.2869C48.6618 25.8087 48.659 25.3855 48.7835 25.0171C48.9097 24.6434 49.1996 24.3443 49.6531 24.1198C49.7316 24.0809 49.8057 24.0509 49.8753 24.0298C49.9484 24.0069 50.0189 23.9876 50.0867 23.9718L50.9862 25.5873C50.9006 25.603 50.8061 25.632 50.7026 25.6744C50.5973 25.7132 50.4929 25.7582 50.3893 25.8095C50.0394 25.9827 49.7775 26.1946 49.6036 26.4452C49.428 26.6922 49.3432 26.9609 49.3491 27.2514ZM49.2057 31.0039L46.5995 25.7381L48.1422 24.9744L48.905 26.691L49.0817 26.6302L50.8447 30.1925L49.2057 31.0039Z" fill="#FFFAE9"/>
<path d="M56.2639 28.1252C55.2554 28.4763 54.4324 28.5117 53.7949 28.2315C53.1561 27.9475 52.6867 27.3746 52.3868 26.5128L52.1865 25.937C51.8905 25.0865 51.8897 24.3569 52.1841 23.7481C52.4772 23.1355 53.0546 22.6793 53.9163 22.3793C54.4958 22.1776 55.0122 22.1097 55.4654 22.1756C55.9211 22.2364 56.3084 22.4159 56.6273 22.7141C56.9501 23.0111 57.2005 23.4154 57.3786 23.9273L57.4434 24.1135C57.4932 24.2566 57.5367 24.4059 57.5741 24.5617C57.6138 24.7124 57.6447 24.8557 57.6667 24.9915L56.1088 25.5338C56.0479 25.3102 55.9859 25.1019 55.9229 24.9086C55.8585 24.7116 55.7989 24.5341 55.7439 24.376C55.664 24.1464 55.5614 23.967 55.4362 23.8375C55.3097 23.7044 55.1568 23.6226 54.9775 23.5922C54.8019 23.5605 54.5975 23.5852 54.3642 23.6664C54.018 23.7869 53.7967 23.9694 53.7004 24.2139C53.6065 24.4533 53.6192 24.7443 53.7384 25.0867L53.9152 25.5948L53.9913 25.7771L54.1288 26.1723C54.1786 26.3153 54.2483 26.4429 54.338 26.5552C54.4314 26.6661 54.5535 26.7502 54.7042 26.8074C54.8574 26.8596 55.0472 26.8779 55.2739 26.8623C55.5029 26.8416 55.7793 26.775 56.1029 26.6624C56.4453 26.5432 56.7634 26.3966 57.0573 26.2226C57.3498 26.0448 57.6213 25.849 57.8717 25.6353L58.1824 26.9828C57.9724 27.2036 57.7055 27.4125 57.3817 27.6096C57.058 27.8066 56.6853 27.9785 56.2639 28.1252ZM53.3995 26.4768L53.0282 25.4099L56.9454 24.0464L57.3167 25.1133L53.3995 26.4768Z" fill="#FFFAE9"/>
<path d="M62.3645 22.789L61.1159 22.1837L61.9048 21.1061L61.8875 21.0725L60.6425 21.0775L60.7668 19.6914L62.0689 20.0162L62.0889 19.989L61.7162 18.7523L63.1987 18.523L63.2111 19.8154L63.2383 19.8354L64.3874 19.1315L64.9246 20.4153L63.7303 20.7875L63.7298 20.8239L64.8073 21.6128L63.8057 22.5661L62.9216 21.5416L62.8861 21.5471L62.3645 22.789Z" fill="#FFFAE9"/>
<circle cx="70.0001" cy="70.0001" r="35.0001" fill="#FFFAE9"/>
<path d="M75.0345 58.7286C75.4133 59.0189 75.8049 59.2799 76.2256 59.5063C76.6824 59.7521 77.1632 59.936 77.6639 60.071C77.7665 60.0986 77.8701 60.1186 77.974 60.1351C78.0039 60.1032 78.0341 60.0714 78.0624 60.0381C78.4266 59.6117 78.6695 59.0937 78.8448 58.5612C79.0759 57.8582 79.1952 57.1186 79.1977 56.3786C79.1989 56.0479 79.1798 55.6857 79.0285 55.385C78.9047 55.1385 78.6214 54.9518 78.3398 55.011C77.9497 55.0931 77.8517 55.5513 77.6973 55.8558C77.3235 56.592 76.6992 57.1964 75.9669 57.5731C75.6537 57.7341 75.3198 57.8548 75.0184 58.0369C74.8599 58.1326 74.7093 58.2498 74.5859 58.3877C74.7329 58.5179 74.9066 58.6304 75.0345 58.7286Z" fill="#18555C"/>
<path d="M62.5147 59.0338C62.6231 58.8435 62.7807 58.699 62.9626 58.6074C64.5139 57.2512 66.767 57.041 68.5528 58.1191L69.909 58.9381V60.0527C69.7174 60.0527 69.5259 60.0013 69.3556 59.8985C69.3556 59.8985 67.3896 58.8365 66.2851 58.8365C63.4167 58.8365 63.3731 60.7538 62.9542 60.5154L62.9157 60.4934C62.402 60.2013 62.2224 59.5477 62.5147 59.0338Z" fill="#18555C"/>
<path d="M76.8563 58.6075C77.0381 58.6991 77.196 58.8436 77.3042 59.0338C77.5965 59.5477 77.4169 60.2013 76.903 60.4937L76.8644 60.5157C76.4453 60.754 76.402 58.8367 73.5336 58.8367C72.4291 58.8367 70.463 59.8988 70.463 59.8988C70.2929 60.0015 70.1013 60.053 69.9097 60.053V58.9383L71.2659 58.1194C73.0521 57.0408 75.3052 57.2513 76.8563 58.6075Z" fill="#18555C"/>
<path d="M70.3322 69.7437C70.3322 63.9921 75.0113 59.3127 80.7632 59.3127H86.943C87.4244 59.3127 87.8145 59.703 87.8145 60.1845C87.8145 63.7873 84.8835 66.7183 81.2807 66.7183H78.2567C77.9299 68.341 77.8264 69.9696 77.7956 71.6222C77.8099 74.9161 75.9584 75.6936 74.4867 78.1177L75.0866 79.8341C75.4696 80.9299 75.3039 82.1013 74.6319 83.0482C73.9599 83.9946 72.9087 84.5373 71.748 84.5375C71.7476 84.5375 68.0665 84.5375 68.0665 84.5375C66.9056 84.5375 65.8544 83.9943 65.1824 83.0479C64.5104 82.1011 64.3447 80.9297 64.7277 79.8336L65.3267 78.1202C64.7663 77.2047 64.1408 76.4549 63.4184 75.6131C62.6787 74.7299 62.1713 73.6182 62.0647 72.47C62.0042 71.9148 62.0244 71.3524 61.999 70.7969C61.9411 69.4215 61.8305 68.07 61.5576 66.7181H58.5336C54.931 66.7181 52 63.7871 52 60.1843C52 59.7028 52.3903 59.3125 52.8716 59.3125H59.0514C64.803 59.3125 69.4821 63.9919 69.4821 69.7435C69.4821 70.9183 69.2857 72.076 68.8982 73.1848L66.3735 80.4085C66.1658 81.003 66.1458 81.7271 66.5425 82.2449C66.9843 82.8216 68.1581 83.6108 68.8698 83.0316C69.0177 82.9114 69.1109 82.7116 69.0655 82.5263C69.0292 82.378 68.9122 82.261 68.782 82.1809C68.5176 82.0179 68.1978 81.9798 67.8948 81.9106C67.4453 81.8083 67.029 81.5679 66.9459 81.0785C66.8802 80.6898 67.1074 80.2589 67.4809 80.1332C67.8703 80.0021 68.2935 80.2019 68.6206 80.4505C69.2256 80.9104 69.7396 81.5797 69.9072 82.3242C70.0745 81.5795 70.5887 80.9102 71.1937 80.4505C71.5208 80.2019 71.944 80.0019 72.3334 80.1332C72.7069 80.2591 72.9341 80.6898 72.8684 81.0785C72.7853 81.5679 72.369 81.8083 71.9195 81.9106C71.6165 81.9795 71.2969 82.0176 71.0323 82.1809C70.9021 82.2612 70.7853 82.378 70.7488 82.5263C70.7034 82.7114 70.7969 82.9112 70.9445 83.0316C71.6562 83.6108 72.83 82.8216 73.2718 82.2449C73.6685 81.7269 73.6485 81.003 73.4408 80.4085L70.9161 73.1848C70.5288 72.0763 70.3322 70.9183 70.3322 69.7437Z" fill="#18555C"/>
<path d="M65.2777 76.1008C64.3658 75.4345 63.4894 74.8961 62.9585 73.91C62.1636 72.4692 62.495 70.7293 62.57 69.1468C62.5748 69.0939 62.5798 69.0411 62.5848 68.9882C62.7059 67.7162 63.3209 66.5409 64.29 65.7079C64.7381 65.3228 65.008 64.9745 64.5197 64.9745H58.5334C56.1897 64.9745 53.6492 62.7286 53.2383 60.502H58.8813C63.5284 60.502 67.8613 63.878 68.1067 68.5188C68.1668 69.6559 67.6261 71.5401 67.2523 72.6096L65.8803 76.5356C65.6768 76.3934 65.4761 76.2485 65.2777 76.1008ZM81.5061 64.9747H73.5068C75.107 62.3598 77.8557 60.6296 80.9734 60.6296H86.3535C85.9306 63.0987 83.9178 64.9747 81.5061 64.9747Z" fill="#18555C"/>
<path d="M64.7804 58.7286C64.4017 59.0189 64.01 59.2799 63.5893 59.5063C63.1326 59.7521 62.6518 59.936 62.151 60.071C62.0485 60.0986 61.9449 60.1186 61.841 60.1351C61.8111 60.1032 61.7809 60.0714 61.7525 60.0381C61.3883 59.6117 61.1454 59.0937 60.9701 58.5612C60.7388 57.8582 60.6197 57.1186 60.6172 56.3786C60.6161 56.0479 60.6351 55.6857 60.7864 55.385C60.9102 55.1385 61.1935 54.9518 61.4752 55.011C61.8655 55.0931 61.9632 55.5513 62.1177 55.8558C62.4914 56.592 63.1158 57.1964 63.8481 57.5731C64.1613 57.7341 64.4951 57.8548 64.7965 58.0369C64.9551 58.1326 65.1056 58.2498 65.229 58.3877C65.0821 58.5179 64.9083 58.6304 64.7804 58.7286Z" fill="#18555C"/>
<path d="M74.6033 70.3989C75.1956 70.3989 75.6757 69.9187 75.6757 69.3264C75.6757 68.7341 75.1956 68.2539 74.6033 68.2539C74.0109 68.2539 73.5308 68.7341 73.5308 69.3264C73.5308 69.9187 74.0109 70.3989 74.6033 70.3989Z" fill="#FFFAE9"/>
<path d="M65.2131 70.3989C65.8054 70.3989 66.2856 69.9187 66.2856 69.3264C66.2856 68.7341 65.8054 68.2539 65.2131 68.2539C64.6208 68.2539 64.1406 68.7341 64.1406 69.3264C64.1406 69.9187 64.6208 70.3989 65.2131 70.3989Z" fill="#FFFAE9"/>
</svg>
