<svg width="168" height="50" viewBox="0 0 168 50" fill="none" xmlns="http://www.w3.org/2000/svg">
<circle cx="25.5586" cy="25" r="25" fill="#E5C96C"/>
<path d="M30.1089 15.2364C30.4481 15.4964 30.799 15.7302 31.1758 15.933C31.5849 16.1532 32.0156 16.3179 32.4642 16.4388C32.556 16.4636 32.6488 16.4815 32.7419 16.4963C32.7687 16.4677 32.7957 16.4392 32.8211 16.4094C33.1474 16.0274 33.3649 15.5635 33.522 15.0865C33.729 14.4567 33.8358 13.7942 33.8381 13.1314C33.8391 12.8352 33.822 12.5107 33.6865 12.2414C33.5756 12.0205 33.3219 11.8533 33.0695 11.9064C32.7201 11.9799 32.6324 12.3903 32.494 12.6631C32.1592 13.3225 31.6 13.8639 30.944 14.2013C30.6635 14.3456 30.3644 14.4537 30.0944 14.6168C29.9524 14.7025 29.8175 14.8075 29.707 14.9311C29.8387 15.0477 29.9943 15.1484 30.1089 15.2364Z" fill="#18555C"/>
<path d="M18.8951 15.5074C18.9922 15.3369 19.1334 15.2075 19.2963 15.1255C20.6859 13.9106 22.7042 13.7223 24.3037 14.6881L25.5186 15.4217V16.4201C25.3469 16.4201 25.1755 16.374 25.0229 16.282C25.0229 16.282 23.2618 15.3306 22.2725 15.3306C19.703 15.3306 19.664 17.0481 19.2888 16.8346L19.2543 16.8148C18.7942 16.5532 18.6333 15.9677 18.8951 15.5074Z" fill="#18555C"/>
<path d="M31.742 15.1255C31.9049 15.2076 32.0463 15.337 32.1432 15.5074C32.405 15.9678 32.2442 16.5532 31.7838 16.8151L31.7493 16.8348C31.3739 17.0483 31.3351 15.3309 28.7656 15.3309C27.7763 15.3309 26.0152 16.2822 26.0152 16.2822C25.8629 16.3743 25.6912 16.4204 25.5195 16.4204V15.4219L26.7344 14.6883C28.3344 13.7222 30.3526 13.9107 31.742 15.1255Z" fill="#18555C"/>
<path d="M25.8977 25.1055C25.8977 19.9535 30.089 15.7619 35.2413 15.7619H40.7769C41.2082 15.7619 41.5576 16.1115 41.5576 16.5428C41.5576 19.77 38.9321 22.3955 35.7049 22.3955H32.9961C32.7033 23.8491 32.6107 25.3079 32.5831 26.7882C32.5959 29.7387 30.9374 30.4351 29.6191 32.6066L30.1565 34.144C30.4996 35.1256 30.3511 36.1749 29.7492 37.023C29.1472 37.8708 28.2056 38.3569 27.1659 38.3571C27.1655 38.3571 23.8682 38.3571 23.8682 38.3571C22.8283 38.3571 21.8867 37.8706 21.2848 37.0228C20.6828 36.1747 20.5343 35.1254 20.8775 34.1436L21.414 32.6088C20.912 31.7887 20.3517 31.1171 19.7047 30.363C19.042 29.572 18.5876 28.5761 18.4921 27.5476C18.4378 27.0503 18.4559 26.5465 18.4332 26.049C18.3814 24.8169 18.2822 23.6063 18.0379 22.3953H15.3291C12.1021 22.3953 9.47656 19.7698 9.47656 16.5426C9.47656 16.1113 9.82618 15.7617 10.2573 15.7617H15.7929C20.9449 15.7617 25.1363 19.9533 25.1363 25.1053C25.1363 26.1576 24.9603 27.1947 24.6132 28.1879L22.3517 34.6586C22.1656 35.191 22.1477 35.8397 22.5031 36.3035C22.8988 36.8201 23.9503 37.5271 24.5878 37.0082C24.7202 36.9005 24.8037 36.7216 24.7631 36.5556C24.7306 36.4227 24.6258 36.3179 24.5091 36.2462C24.2723 36.1001 23.9858 36.066 23.7144 36.004C23.3118 35.9124 22.9388 35.6971 22.8645 35.2587C22.8055 34.9105 23.0091 34.5245 23.3437 34.412C23.6925 34.2946 24.0716 34.4735 24.3645 34.6962C24.9065 35.1082 25.3668 35.7077 25.517 36.3746C25.6669 35.7074 26.1274 35.108 26.6694 34.6962C26.9624 34.4735 27.3414 34.2943 27.6902 34.412C28.0248 34.5247 28.2284 34.9105 28.1695 35.2587C28.0951 35.6971 27.7221 35.9124 27.3195 36.004C27.0481 36.0658 26.7619 36.0999 26.5248 36.2462C26.4082 36.3181 26.3036 36.4227 26.2708 36.5556C26.2302 36.7214 26.3139 36.9003 26.4462 37.0082C27.0836 37.5271 28.1351 36.8201 28.5309 36.3035C28.8862 35.8395 28.8683 35.191 28.6822 34.6586L26.4208 28.1879C26.0738 27.1949 25.8977 26.1576 25.8977 25.1055Z" fill="#18555C"/>
<path d="M21.3703 30.7989C20.5534 30.2021 19.7685 29.7198 19.2929 28.8365C18.5808 27.5459 18.8776 25.9874 18.9449 24.5698C18.9492 24.5225 18.9536 24.4751 18.9581 24.4278C19.0666 23.2883 19.6175 22.2356 20.4856 21.4894C20.887 21.1445 21.1287 20.8325 20.6914 20.8325H15.329C13.2297 20.8325 10.954 18.8207 10.5859 16.8262H15.6407C19.8034 16.8262 23.6845 19.8502 23.9044 24.0073C23.9582 25.0259 23.4739 26.7136 23.1391 27.6717L21.91 31.1884C21.7278 31.061 21.548 30.9312 21.3703 30.7989ZM35.907 20.8327H28.7415C30.1749 18.4904 32.6371 16.9405 35.4298 16.9405H40.2491C39.8702 19.1522 38.0673 20.8327 35.907 20.8327Z" fill="#18555C"/>
<path d="M20.9245 15.2364C20.5853 15.4964 20.2345 15.7302 19.8576 15.933C19.4485 16.1532 19.0178 16.3179 18.5692 16.4388C18.4774 16.4636 18.3846 16.4815 18.2915 16.4963C18.2647 16.4677 18.2377 16.4392 18.2123 16.4094C17.8861 16.0274 17.6685 15.5635 17.5115 15.0865C17.3042 14.4567 17.1976 13.7942 17.1954 13.1314C17.1943 12.8352 17.2114 12.5107 17.3469 12.2414C17.4578 12.0205 17.7116 11.8533 17.9639 11.9064C18.3135 11.9799 18.401 12.3903 18.5394 12.6631C18.8742 13.3225 19.4334 13.8639 20.0894 14.2013C20.37 14.3456 20.669 14.4537 20.939 14.6168C21.081 14.7025 21.2159 14.8075 21.3264 14.9311C21.1947 15.0477 21.0391 15.1484 20.9245 15.2364Z" fill="#18555C"/>
<path d="M29.7263 25.6929C30.2569 25.6929 30.687 25.2627 30.687 24.7322C30.687 24.2016 30.2569 23.7715 29.7263 23.7715C29.1957 23.7715 28.7656 24.2016 28.7656 24.7322C28.7656 25.2627 29.1957 25.6929 29.7263 25.6929Z" fill="#E5C96C"/>
<path d="M21.3123 25.6929C21.8428 25.6929 22.2729 25.2627 22.2729 24.7322C22.2729 24.2016 21.8428 23.7715 21.3123 23.7715C20.7817 23.7715 20.3516 24.2016 20.3516 24.7322C20.3516 25.2627 20.7817 25.6929 21.3123 25.6929Z" fill="#E5C96C"/>
<path d="M66.428 34L66.988 16.108H73.092L76.046 26.776H76.228L79.182 16.108H85.286L85.846 34H81.604L81.478 28.134L81.352 20.994H81.142L78.076 31.9H74.184L71.118 20.994H70.894L70.782 28.148L70.67 34H66.428ZM88.7272 34V20.238H93.0112V34H88.7272ZM90.8692 18.936C90.0665 18.936 89.4832 18.754 89.1192 18.39C88.7552 18.0167 88.5732 17.5173 88.5732 16.892V16.794C88.5732 16.1687 88.7552 15.674 89.1192 15.31C89.4832 14.946 90.0665 14.764 90.8692 14.764C91.6532 14.764 92.2272 14.946 92.5912 15.31C92.9645 15.674 93.1512 16.1687 93.1512 16.794V16.892C93.1512 17.5267 92.9645 18.026 92.5912 18.39C92.2272 18.754 91.6532 18.936 90.8692 18.936ZM95.8912 34V15.506H100.175V34H95.8912ZM111.805 34L107.745 28.064H106.625V25.544H107.745L111.693 20.238H116.607L111.371 27.07V26.258L116.803 34H111.805ZM103.041 34V15.506H107.297V34H103.041ZM129.138 30.486V34H117.686V30.808L123.902 23.738H117.728V20.238H129.054V23.416L122.824 30.486H129.138ZM137.928 34.35C135.427 34.35 133.579 33.7947 132.384 32.684C131.189 31.564 130.592 29.9353 130.592 27.798V26.37C130.592 24.2607 131.152 22.646 132.272 21.526C133.392 20.3967 135.021 19.832 137.158 19.832C138.595 19.832 139.79 20.0793 140.742 20.574C141.703 21.0593 142.422 21.7547 142.898 22.66C143.383 23.5653 143.626 24.6527 143.626 25.922V26.384C143.626 26.7387 143.607 27.1027 143.57 27.476C143.542 27.84 143.5 28.1807 143.444 28.498H139.58C139.617 27.9567 139.641 27.448 139.65 26.972C139.659 26.4867 139.664 26.048 139.664 25.656C139.664 25.0867 139.575 24.6107 139.398 24.228C139.221 23.836 138.945 23.5373 138.572 23.332C138.208 23.1267 137.737 23.024 137.158 23.024C136.299 23.024 135.669 23.2573 135.268 23.724C134.876 24.1813 134.68 24.8347 134.68 25.684V26.944L134.708 27.406V28.386C134.708 28.7407 134.764 29.0767 134.876 29.394C134.997 29.7113 135.203 29.9913 135.492 30.234C135.791 30.4673 136.197 30.654 136.71 30.794C137.233 30.9247 137.895 30.99 138.698 30.99C139.547 30.99 140.364 30.9107 141.148 30.752C141.932 30.584 142.683 30.36 143.402 30.08L143.052 33.3C142.417 33.6267 141.666 33.8833 140.798 34.07C139.93 34.2567 138.973 34.35 137.928 34.35ZM132.86 28.498V25.852H142.576V28.498H132.86ZM154.792 34V25.908C154.792 25.404 154.726 24.97 154.596 24.606C154.465 24.2327 154.246 23.948 153.938 23.752C153.63 23.556 153.21 23.458 152.678 23.458C152.239 23.458 151.852 23.5373 151.516 23.696C151.18 23.8453 150.895 24.0553 150.662 24.326C150.438 24.5873 150.27 24.886 150.158 25.222L149.5 23.22H150.228C150.377 22.5947 150.62 22.0347 150.956 21.54C151.301 21.0453 151.772 20.6533 152.37 20.364C152.967 20.0653 153.723 19.916 154.638 19.916C155.664 19.916 156.504 20.1167 157.158 20.518C157.811 20.91 158.292 21.498 158.6 22.282C158.917 23.066 159.076 24.046 159.076 25.222V34H154.792ZM145.944 34V20.238H150.2L150.06 23.682L150.228 24.088V34H145.944Z" fill="white"/>
<path d="M163.707 34.378C162.904 34.378 162.312 34.1727 161.929 33.762C161.556 33.3513 161.369 32.7773 161.369 32.04V31.886C161.369 31.158 161.556 30.584 161.929 30.164C162.312 29.744 162.904 29.534 163.707 29.534C164.491 29.534 165.074 29.744 165.457 30.164C165.84 30.584 166.031 31.158 166.031 31.886V32.04C166.031 32.7773 165.84 33.3513 165.457 33.762C165.074 34.1727 164.491 34.378 163.707 34.378Z" fill="#E5C96C"/>
</svg>
