<svg width="81" height="145" viewBox="0 0 81 145" fill="none" xmlns="http://www.w3.org/2000/svg">
<g clip-path="url(#clip0_1499_9115)">
<path d="M40.3649 88.3217L40.8162 89.2141L40.8346 89.2048L40.8526 89.1948L40.3649 88.3217ZM1.85425 74.7688L2.8417 74.6109L2.84025 74.6018L2.83863 74.5928L1.85425 74.7688ZM45.9843 75.593L46.9841 75.572L46.9818 75.4627L46.956 75.3565L45.9843 75.593ZM47.7209 144.671L53.1302 134.469L41.5907 134.885L47.7209 144.671ZM48.3834 134.295C48.3211 132.134 48.2571 129.811 48.1924 127.379L46.1931 127.432C46.2579 129.865 46.3219 132.19 46.3843 134.352L48.3834 134.295ZM48.0137 120.476C47.9563 118.205 47.8991 115.888 47.8427 113.565L45.8433 113.613C45.8997 115.937 45.957 118.254 46.0143 120.527L48.0137 120.476ZM47.6776 106.654C47.6223 104.305 47.5685 101.987 47.517 99.7407L45.5175 99.7866C45.5691 102.033 45.6228 104.351 45.6781 106.701L47.6776 106.654ZM47.3604 92.8325C47.3045 90.3371 47.253 88.0101 47.2072 85.9234L45.2077 85.9672C45.2535 88.0542 45.305 90.3815 45.3609 92.8773L47.3604 92.8325ZM47.0573 79.016C47.0339 77.9229 47.0156 77.0619 47.0031 76.4741C46.9969 76.1803 46.9922 75.9547 46.989 75.8027C46.9874 75.7266 46.9861 75.669 46.9853 75.6303C46.9849 75.611 46.9846 75.5964 46.9844 75.5867C46.9843 75.5818 46.9842 75.5781 46.9842 75.5757C46.9842 75.5745 46.9841 75.5726 46.9841 75.572C46.9841 75.5721 46.9841 75.5716 46.9841 75.572C46.9841 75.5719 46.9841 75.572 45.9843 75.593C44.9845 75.6139 44.9845 75.614 44.9845 75.614C44.9845 75.6137 44.9845 75.6141 44.9845 75.614C44.9845 75.6146 44.9846 75.6164 44.9846 75.6176C44.9847 75.6201 44.9848 75.6238 44.9849 75.6286C44.9851 75.6384 44.9854 75.653 44.9858 75.6723C44.9866 75.711 44.9878 75.7687 44.9894 75.8448C44.9926 75.9969 44.9974 76.2225 45.0036 76.5165C45.016 77.1044 45.0344 77.9656 45.0578 79.0589L47.0573 79.016ZM46.956 75.3565C46.62 73.9759 46.217 72.6776 45.7532 71.4591L43.884 72.1705C44.3168 73.3076 44.6954 74.5259 45.0127 75.8295L46.956 75.3565ZM41.7312 64.3709C39.9006 62.1225 37.7681 60.3829 35.456 59.097L34.4839 60.8449C36.5794 62.0104 38.5139 63.587 40.1803 65.6337L41.7312 64.3709ZM27.7037 56.4783C24.9918 56.0597 22.2293 56.0852 19.5611 56.478L19.8523 58.4566C22.3386 58.0907 24.8994 58.0691 27.3985 58.4549L27.7037 56.4783ZM11.7615 58.7807C9.16372 59.9752 6.83803 61.5422 4.99492 63.3952L6.41292 64.8057C8.06474 63.145 10.1845 61.7072 12.5971 60.5977L11.7615 58.7807ZM0.905402 70.6586C0.632352 72.0419 0.607658 73.4789 0.869875 74.9449L2.83863 74.5928C2.62094 73.3757 2.64181 72.1895 2.86754 71.0459L0.905402 70.6586ZM0.866804 74.9268C1.0485 76.0628 1.25572 77.1435 1.48716 78.1711L3.43828 77.7316C3.21664 76.7475 3.0172 75.7082 2.8417 74.6109L0.866804 74.9268ZM3.46691 84.4784C4.44791 86.7908 5.61185 88.7009 6.92883 90.2553L8.45479 88.9625C7.28546 87.5823 6.22164 85.8507 5.30807 83.6973L3.46691 84.4784ZM12.3385 94.4177C14.4488 95.3878 16.6959 95.8311 18.9761 95.9032L19.0393 93.9042C16.9765 93.839 15.0002 93.4401 13.1739 92.6005L12.3385 94.4177ZM25.6234 95.2073C27.78 94.7281 29.9058 94.0424 31.9252 93.2698L31.2105 91.4018C29.2566 92.1494 27.2269 92.8022 25.1895 93.255L25.6234 95.2073ZM37.9161 90.6527C38.9507 90.1537 39.9235 89.6656 40.8162 89.2141L39.9136 87.4294C39.0244 87.8791 38.0648 88.3605 37.0473 88.8512L37.9161 90.6527ZM40.8526 89.1948C41.9681 88.5716 43.055 87.9394 44.114 87.2987L43.0787 85.5875C42.0398 86.2161 40.9728 86.8366 39.8772 87.4487L40.8526 89.1948ZM50.3882 83.1778C52.4922 81.6767 54.4634 80.1387 56.3087 78.5694L55.013 77.0459C53.212 78.5775 51.2856 80.0807 49.2266 81.5497L50.3882 83.1778ZM61.8153 73.4234C63.6216 71.5634 65.2728 69.6709 66.7791 67.7542L65.2065 66.5184C63.744 68.3796 62.1388 70.2196 60.3806 72.03L61.8153 73.4234ZM71.1002 61.5744C72.4585 59.3748 73.6469 57.1569 74.6799 54.9328L72.866 54.0904C71.8659 56.2435 70.7149 58.3918 69.3985 60.5236L71.1002 61.5744ZM77.4396 47.9114C78.2358 45.46 78.8615 43.0176 79.3365 40.6005L77.3741 40.2148C76.914 42.556 76.3081 44.9207 75.5374 47.2935L77.4396 47.9114ZM80.3551 33.1226C80.5544 30.5511 80.5978 28.0304 80.5115 25.5817L78.5127 25.6521C78.5965 28.029 78.5543 30.4746 78.3611 32.968L80.3551 33.1226ZM79.8332 18.0769C79.4546 15.4798 78.9426 13.0047 78.3359 10.6829L76.4009 11.1886C76.9894 13.4406 77.4864 15.8433 77.8542 18.3654L79.8332 18.0769ZM75.9945 3.50066C75.5051 2.26896 74.9943 1.11171 74.4717 0.0371094L72.6731 0.911807C73.173 1.93979 73.6639 3.05151 74.1359 4.2392L75.9945 3.50066Z" fill="#E5C96C"/>
</g>
<defs>
<clipPath id="clip0_1499_9115">
<rect width="81" height="145" fill="white"/>
</clipPath>
</defs>
</svg>
